<?xml version="1.0" encoding="utf-8"?>
<!-- Generator: Adobe Illustrator 17.1.0, SVG Export Plug-In . SVG Version: 6.00 Build 0)  -->
<!DOCTYPE svg PUBLIC "-//W3C//DTD SVG 1.1//EN" "http://www.w3.org/Graphics/SVG/1.1/DTD/svg11.dtd">
<svg version="1.1" id="图层_1" xmlns="http://www.w3.org/2000/svg" xmlns:xlink="http://www.w3.org/1999/xlink" x="0px" y="0px"
	 viewBox="0 0 316.219 314.617" enable-background="new 0 0 316.219 314.617" xml:space="preserve">
<g>
	<g>
		<path fill-rule="evenodd" clip-rule="evenodd" fill="#CC7F02" d="M49.973,158.239c0-62.666,0-58.804,0-91.826
			C49.973,30.474,78.818,0,116.386,0c32.411,0,59.534,0,91.945,0c42.443,0,66.413,34.268,66.413,66.413c0,33.077,0,58.749,0,91.826
			c0,34.826-27.627,66.413-66.413,66.413c-31.078,0.01-60.867-0.004-91.945,0C78.818,224.652,49.973,193.216,49.973,158.239z"/>
		<circle fill-rule="evenodd" clip-rule="evenodd" fill="#D10000" cx="162.359" cy="112.328" r="86.63"/>
		<path fill-rule="evenodd" clip-rule="evenodd" fill="#FEFCFC" d="M125.213,142.073c0.055-8.08,0.257-17.428,1.716-26.693
			c0.874-5.548,2.43-10.872,5.59-15.615c2.452-3.679,5.665-6.597,9.187-9.198c3.705-2.736,7.551-5.266,11.482-7.667
			c2.505-1.53,3.756-4.516,3.005-7.072c-0.577-1.964-2.085-3.277-4.126-3.465c-2.422-0.223-4.818,0.126-7.2,0.519
			c-5.316,0.876-10.548,2.092-15.519,4.221c-1.908,0.817-3.717,1.87-5.811,2.189c-1.247,0.19-2.488,0.209-3.717-0.106
			c-3.327-0.852-5.011-4.016-3.695-7.183c1.17-2.815,3.175-4.86,6.187-5.713c14.799-4.188,29.868-6.337,45.27-5.877
			c13,0.389,25.676,2.648,38.039,6.676c1.439,0.469,2.782,1.132,3.873,2.201c1.72,1.683,2.499,3.681,1.649,6.04
			c-0.857,2.379-2.754,3.46-5.161,3.712c-2.16,0.226-4.172-0.383-6.111-1.278c-7.287-3.361-14.995-5.046-22.948-5.745
			c-1.685-0.148-3.373-0.269-5.061-0.382c-0.412-0.028-0.833-0.007-1.243,0.043c-1.647,0.203-2.535,1.198-2.511,2.856
			c0.027,1.869,0.779,3.496,1.771,5.032c0.309,0.479,0.833,0.389,1.275,0.453c2.913,0.417,5.794,0.971,8.603,1.86
			c2.576,0.815,5.042,1.865,7.234,3.481c2.896,2.134,4.746,4.93,5.357,8.502c0.638,3.724,0.747,7.455-0.06,11.163
			c-1.286,5.902-4.885,9.88-10.366,12.249c-2.201,0.951-4.498,1.573-6.85,2.01c-4.891,0.909-7.688,3.916-8.236,8.883
			c-0.544,4.935,0.358,9.658,2.525,14.066c3.707,7.542,7.674,14.95,12.257,22.009c3.194,4.918,6.69,9.603,10.699,13.894
			c0.531,0.568,1.046,1.149,1.43,1.833c0.9,1.605,0.737,3.219-0.446,4.635c-2.564,3.068-9.523,4.048-12.649-0.303
			c-7.392-10.285-14.346-20.833-19.638-32.387c-2.815-6.146-5.116-12.469-6.046-19.207c-0.556-4.03-0.878-8.095,0.549-12.017
			c2.871-7.892,8.329-12.662,16.842-13.614c0.882-0.099,1.771-0.17,2.642-0.331c5.272-0.978,7.506-5.459,5.143-10.278
			c-1.843-3.759-5.758-5.97-10.322-5.583c-4.786,0.407-9.394,1.606-13.721,3.746c-7.492,3.706-12.406,9.706-15.382,17.4
			c-2.141,5.535-3.125,11.318-3.515,17.21c-0.656,9.904,0.212,19.735,1.463,29.547c0.582,4.565,1.174,9.13,1.698,13.702
			c0.297,2.593-0.255,4.941-2.753,6.277c-2.602,1.392-5.171,0.974-7.549-0.635c-1.915-1.296-2.862-3.207-3.091-5.469
			C125.983,162.918,125.31,153.15,125.213,142.073z"/>
		<path fill-rule="evenodd" clip-rule="evenodd" fill="#FEFCFC" d="M162.615,50.393c-9.441-0.039-17.793-0.026-26.145,0.087
			c-2.108,0.029-3.184-0.931-3.402-3.025c-0.322-3.083,1.766-6.471,4.663-7.557c0.602-0.226,1.22-0.33,1.872-0.314
			c11.069,0.266,22.139,0.397,33.21,0.093c4.16-0.114,8.317-0.301,12.473-0.526c2.935-0.159,5.52,0.644,7.219,3.25
			c1.918,2.94,0.737,6.518-2.521,7.832c-1.34,0.54-2.73,0.705-4.159,0.655C177.729,50.6,169.628,50.455,162.615,50.393z"/>
	</g>
	<g>
		<path fill="#FFFFFF" d="M81.931,72.095c-0.169-0.042-0.324-0.107-0.463-0.195c-0.028-1.192-0.396-2.467-1.1-3.828
			c-0.956-1.583-2.08-3.208-3.374-4.875c-1.213-1.485-2.561-2.859-4.044-4.125c-0.244,0.695-0.792,1.098-1.646,1.209
			c-0.267-0.299-0.253-0.682,0.042-1.148c0.518-0.715,1.067-1.737,1.647-3.067c0.118-0.186,0.19-0.401,0.214-0.647
			c-0.093-0.059-0.285-0.115-0.578-0.17c-0.123-0.012-0.207-0.033-0.254-0.063c-0.613-0.061-1.069,0.042-1.369,0.308
			c-0.288,0.146-0.482-0.011-0.584-0.468c-0.056-0.427,0.048-0.85,0.314-1.269c1.008-0.666,1.99-0.566,2.943,0.297
			c0.261-0.618,0.684-1.491,1.269-2.623c0.059-0.093,0.103-0.163,0.132-0.209c-0.004-0.199,0.037-0.368,0.125-0.508
			c0.076-0.016,0.153-0.034,0.229-0.051c0.469-0.225,0.797-0.279,0.982-0.161c0.25,0.224,0.205,0.554-0.137,0.99
			c-0.569,0.488-0.919,0.886-1.05,1.195c0.381-0.084,0.665-0.069,0.85,0.049c0.123,0.014,0.327,0.207,0.61,0.582
			c0.127,0.212,0.215,0.332,0.261,0.361c0.118-0.186,0.245-0.334,0.379-0.445c0.312-0.39,0.585-0.511,0.817-0.364
			c0.051,0.229-0.115,0.646-0.498,1.251c-0.059,0.094-0.104,0.164-0.132,0.209c0.632,0.857,0.938,1.508,0.918,1.951
			c0.088-0.14,0.212-0.387,0.372-0.743c0.526-1.037,0.937-1.788,1.231-2.254c0.401-0.529,0.694-0.735,0.88-0.617
			c0.094,0.059,0.143,0.188,0.147,0.386c0.051,0.229-0.056,0.552-0.321,0.971c-0.088,0.14-0.229,0.312-0.423,0.515
			c-0.223,0.25-0.379,0.445-0.468,0.585c-0.648,1.025-1.029,1.73-1.143,2.115c0.432,0.144,0.741,0.273,0.927,0.391
			c0.089-0.14,0.243-0.434,0.461-0.882c0.19-0.401,0.313-0.649,0.373-0.743c0.548-0.762,1.06-1.057,1.539-0.885
			c0.187,0.118,0.47,0.494,0.853,1.127c0.047,0.029,0.102,0.098,0.166,0.202c0.767,0.747,1.286,1.37,1.558,1.867
			c0.191,0.317,0.178,0.7-0.042,1.148c-0.177,0.28-0.464,0.425-0.861,0.434c-0.199,0.005-0.336,0.017-0.412,0.033
			C83.153,60.114,83,60.409,82.81,60.81c-0.207,0.326-0.354,0.559-0.442,0.699c-0.236,0.374-0.506,0.594-0.81,0.662
			c-1.227-0.124-2.104-0.386-2.634-0.787c-0.576-0.429-0.806-0.737-0.688-0.924c0.059-0.093,0.25-0.135,0.57-0.128
			c0.025-0.245,0.115-0.645,0.27-1.199c0.102-0.262,0.172-0.478,0.214-0.647c-0.419-0.266-0.714-0.418-0.882-0.461
			c-0.249,0.496-0.609,1.376-1.084,2.641c-0.189,0.403-0.304,0.688-0.347,0.857c2.34,2.591,3.995,4.975,4.964,7.154
			c0.438,1.06,0.537,2.037,0.299,2.93C82.152,71.746,82.048,71.91,81.931,72.095z M73.294,57.136
			c-0.083,0.339-0.18,0.801-0.288,1.383c-0.013,0.124-0.034,0.208-0.063,0.254c0.364-0.161,0.69-0.214,0.982-0.161
			c0.216,0.072,0.464,0.196,0.743,0.373c0.308-0.588,0.453-0.92,0.435-0.997c-0.63-0.138-1.072-0.417-1.328-0.84
			C73.525,56.925,73.366,56.922,73.294,57.136z M73.401,56.812c0.388-0.406,0.836-0.547,1.344-0.422
			c0.198-0.004,0.491,0.051,0.875,0.163c0.047,0.03,0.094,0.06,0.14,0.089c0.072-0.215,0.179-0.539,0.321-0.971
			c0.113-0.384,0.214-0.647,0.302-0.787c-0.331-0.405-0.737-0.792-1.22-1.164c-0.186-0.118-0.324-0.107-0.412,0.033
			c-0.27,0.221-0.462,0.524-0.575,0.908c-0.03,0.047-0.05,0.132-0.062,0.254c0.005,0.199-0.023,0.345-0.082,0.438
			c-0.03,0.047-0.097,0.102-0.203,0.165l-0.044,0.07C73.684,55.851,73.556,56.259,73.401,56.812z M75.139,59.478
			c0.11,0.135,0.345,0.382,0.706,0.74c0.285,0.376,0.505,0.647,0.662,0.81c0.337-0.634,0.648-1.383,0.933-2.248
			c-0.49-0.049-1.006-0.212-1.549-0.491c-0.042,0.169-0.218,0.449-0.53,0.838C75.271,59.268,75.198,59.386,75.139,59.478z
			 M77.761,57.81c0.088-0.14,0.151-0.394,0.188-0.761c-0.132-0.41-0.475-0.952-1.025-1.627c-0.278,0.543-0.45,1.021-0.517,1.435
			C76.81,57.046,77.26,57.364,77.761,57.81z M79.919,58.883c-0.071,0.216-0.178,0.54-0.321,0.971
			c-0.054,0.293-0.102,0.523-0.145,0.691c0.076-0.016,0.246,0.025,0.508,0.125c-0.093-0.059-0.031-0.052,0.184,0.019
			c0.059-0.093,0.139-0.27,0.24-0.533c0.16-0.354,0.246-0.594,0.258-0.717c-0.093-0.059-0.218-0.17-0.375-0.335
			C80.083,58.987,79.966,58.913,79.919,58.883z M83.555,59.325c0.088-0.14,0.102-0.262,0.037-0.368
			c-0.063-0.104-0.151-0.226-0.261-0.361c-0.365-0.557-0.626-0.917-0.783-1.083c-0.093-0.059-0.227-0.208-0.401-0.449
			c-0.313-0.329-0.563-0.552-0.75-0.67c-0.123-0.012-0.332,0.215-0.626,0.68c-0.207,0.326-0.36,0.621-0.461,0.882
			c0.374,0.236,0.614,0.422,0.724,0.557c0.294-0.465,0.54-0.799,0.733-1.004c0.234,0.148,0.198,0.615-0.104,1.402
			c0.064,0.106,0.212,0.232,0.445,0.379c0.204,0.195,0.353,0.321,0.445,0.379c0.265-0.419,0.512-0.654,0.74-0.706l0.051,0.228
			c-0.013,0.124,0.005,0.199,0.051,0.228L83.555,59.325z M81.159,59.863c-0.177,0.279-0.369,0.583-0.575,0.908
			c0.168,0.042,0.432,0.144,0.787,0.303c0.292,0.055,0.485,0.111,0.578,0.169c0.059-0.093,0.139-0.27,0.239-0.533l0.019-0.184
			C81.834,60.291,81.485,60.07,81.159,59.863z M83.023,64.957c-0.699-0.442-1.019-0.709-0.959-0.803
			c0.14,0.088,0.248,0.125,0.324,0.107l0.114-0.026c0.076-0.016,0.252-0.036,0.526-0.058c0.368,0.037,0.558-0.005,0.571-0.128
			c0.117-0.186,0.154-0.294,0.107-0.324c0.013-0.122,0.007-0.321-0.014-0.596c0.025-0.244,0.036-0.467,0.03-0.666
			c0.059-0.093,0.103-0.163,0.132-0.209c0.047,0.03,0.104,0.198,0.173,0.5c-0.038,0.368-0.001,0.62,0.109,0.754
			c0.051,0.229,0.147,0.387,0.287,0.475c-0.03,0.047,0.01,0.138,0.121,0.272c0.237,0.346,0.297,0.613,0.18,0.799
			C84.09,65.437,83.522,65.405,83.023,64.957z M85.571,59.231c-0.093-0.059-0.125-0.111-0.096-0.159
			c0.595-0.732,1.266-1.123,2.014-1.172c0.304-0.067,0.666,0.03,1.085,0.295c0.232,0.147,0.261,0.361,0.084,0.641
			c-0.118,0.187-0.216,0.288-0.291,0.305l-0.114,0.025c-0.411,0.132-0.921,0.168-1.535,0.105
			C86.212,59.147,85.829,59.134,85.571,59.231z"/>
		<path fill="#FFFFFF" d="M91.914,37.696c-0.104-0.129,0.013-0.292,0.349-0.491l0.064-0.052c0.559-0.447,1.166-0.615,1.821-0.504
			l0.064-0.051c-0.078-0.362-0.146-0.624-0.207-0.788c-0.018-0.198-0.09-0.421-0.22-0.671l0.013-0.116l0.103,0.129l0.052,0.064
			c0.035,0.043,0.086,0.108,0.155,0.193c0.361,0.629,0.819,1.288,1.369,1.976c0.481,0.25,0.728,0.866,0.736,1.847l0.052,0.064
			c-0.258,0.207-0.503,0.297-0.736,0.271c-0.112-0.051-0.25-0.047-0.414,0.013c-0.077-0.008-0.155-0.016-0.232-0.026
			c-0.301-0.111-0.87-0.469-1.705-1.072c-0.362-0.274-0.616-0.46-0.762-0.555c-0.034-0.042-0.091-0.068-0.168-0.077
			C92.06,37.791,91.949,37.74,91.914,37.696z M98.32,40.937c-0.844-2.643-2.277-5.097-4.301-7.361
			c-0.112-0.051-0.236-0.164-0.375-0.336c-0.207-0.258-0.47-0.366-0.788-0.323c-0.061-0.163,0.039-0.349,0.297-0.555
			c0.482-0.456,0.99-0.438,1.524,0.051c0.559,0.612,1.115,1.262,1.666,1.95c0.206-0.094,0.551-0.193,1.033-0.297
			c0.077,0.01,0.137-0.004,0.181-0.039c0.042-0.034,0.099-0.008,0.168,0.077c0.232,0.026,0.413-0.013,0.542-0.116
			c0.042-0.034,0.047-0.073,0.013-0.116l0.013-0.116c-0.077-0.361-0.202-0.826-0.375-1.395c-0.129-0.249-0.207-0.434-0.232-0.555
			l-0.104-0.129c0.035,0.043,0.108,0.091,0.22,0.142c0.035,0.043,0.069,0.087,0.104,0.129c0.026,0.122,0.056,0.203,0.09,0.246
			l0.116,0.013c0.035,0.043,0.069,0.087,0.103,0.129c0.242,0.302,0.56,0.788,0.956,1.459c0.129,0.251,0.246,0.439,0.349,0.568
			c-0.103,0.225-0.284,0.439-0.542,0.646c-0.172,0.138-0.542,0.116-1.11-0.065c-0.568-0.181-0.956-0.223-1.163-0.129
			c0.37,0.551,0.887,1.374,1.55,2.467c0.301,0.465,0.516,0.823,0.646,1.072c0.905,1.749,1.292,3.203,1.163,4.365
			c-0.164,0.414-0.397,0.741-0.697,0.981c-0.087,0.069-0.349-0.039-0.788-0.323l-0.052-0.064
			C98.646,42.582,98.578,41.789,98.32,40.937z M103.382,38.793c-0.31-0.387-0.681-0.938-1.111-1.653
			c-0.465-0.757-0.834-1.308-1.111-1.653c-0.688-0.861-1.645-2.143-2.867-3.848c-0.069-0.086-0.189-0.236-0.362-0.452
			c-0.646-0.895-1.188-1.485-1.627-1.769c-0.061-0.163-0.048-0.279,0.039-0.349c0.464-0.301,0.956-0.129,1.472,0.516
			c0.345,0.431,0.908,1.18,1.692,2.247c0.586,0.732,0.965,1.206,1.137,1.42c1.24,1.55,2.299,2.962,3.177,4.236
			c0.663,0.741,0.788,1.206,0.375,1.395C103.903,39.047,103.631,39.017,103.382,38.793z M109.555,38.831
			c-0.173-0.216-0.375-0.512-0.607-0.891c-0.207-0.258-0.361-0.452-0.465-0.581c-0.578-0.809-1.261-1.708-2.054-2.699
			c-0.688-0.861-1.67-2.087-2.945-3.68c-1.619-2.023-2.958-3.74-4.017-5.153c-0.172-0.215-0.354-0.353-0.542-0.413
			c-0.078-0.007-0.133-0.034-0.168-0.077c-0.104-0.129-0.09-0.246,0.039-0.349c0.499-0.257,0.946-0.228,1.343,0.09
			c0.232,0.38,0.538,0.806,0.917,1.279c1.024,1.369,2.467,3.215,4.327,5.54c2.067,2.583,3.617,4.52,4.65,5.811
			c0.662,0.741,0.779,1.283,0.349,1.627c-0.086,0.07-0.146,0.082-0.181,0.039l-0.232-0.026L109.555,38.831z M99.701,31.678
			c-0.069-0.086-0.039-0.181,0.09-0.284l0.064-0.052c0.129-0.104,0.375-0.194,0.736-0.271c0.318-0.042,0.52-0.098,0.607-0.168
			c0.042-0.034,0.069-0.09,0.077-0.167l0.078-0.168c-0.155-0.723-0.366-1.295-0.633-1.718c0.12-0.025,0.245,0.087,0.375,0.336
			l0.052,0.064c0.138,0.172,0.254,0.363,0.349,0.568c0.198,0.336,0.456,0.659,0.775,0.968c0.258,0.147,0.293,0.366,0.104,0.659
			c-0.181,0.216-0.853,0.258-2.015,0.129c-0.078-0.008-0.16,0.022-0.246,0.09C99.907,31.76,99.77,31.764,99.701,31.678z"/>
		<path fill="#FFFFFF" d="M132.263,28.49c-0.053,0.019-0.105,0.037-0.156,0.055c-0.104,0.037-0.184-0.022-0.239-0.178
			c-0.412-1.492-1.073-3.684-1.983-6.579c-0.147-0.415-0.258-0.727-0.331-0.935c-0.019-0.051-0.151-0.18-0.4-0.385l0.184,0.022
			l0.105,0.05c-0.096-0.433-0.493-1.637-1.193-3.612c-0.621,0.396-1.354,0.802-2.2,1.219c0.599,1.191,1.257,2.304,1.974,3.336
			c0.122,0.016,0.211,0.101,0.267,0.256c0.304,0.361,0.281,0.632-0.063,0.812c-0.4,0.026-0.733-0.09-1-0.347
			c-0.859-1.099-1.561-2.254-2.106-3.464c-0.222-0.624-0.172-1.225,0.147-1.808l0.106,0.05c0.122,0.016,0.192,0.049,0.211,0.101
			l0.027,0.078c0.003,0.174,0.096,0.435,0.276,0.779c0.495-0.584,1.224-1.165,2.189-1.742l-0.746-2.104
			c-1.159,0.529-2.296,1.196-3.414,2.001c-0.895,0.611-1.629,1.017-2.199,1.219c-0.312,0.11-0.645,0.083-0.996-0.085l-0.027-0.078
			c-0.073-0.207,0.165-0.438,0.719-0.694c0.709-0.309,1.787-0.897,3.235-1.762c1.274-0.861,3.216-1.9,5.825-3.12
			c0.155-0.056,0.328-0.146,0.518-0.271c0.26-0.092,0.44-0.157,0.546-0.194c0.415-0.147,0.772-0.127,1.073,0.058
			c0.096,0.435-0.134,0.779-0.687,1.033c-0.019-0.051-0.055-0.068-0.105-0.05c-1.455,0.516-2.752,1.064-3.892,1.644
			c0.211,0.101,0.372,0.307,0.482,0.618l0.393,1.353c0.534-0.306,1.087-0.561,1.659-0.764c0.623-0.221,1.196-0.337,1.72-0.347
			c0.629,0.127,1,0.347,1.11,0.659c0.038,0.104,0.059,0.33,0.065,0.679c-0.049,0.193-0.054,0.341-0.018,0.445
			c0.211,1.915,0.236,3.222,0.076,3.922c-0.18,0.649-0.571,1.11-1.177,1.382c-0.261,0.093-0.794-0.01-1.602-0.309
			c0.442,1.247,0.94,2.649,1.493,4.208c0.537,1.681,0.661,2.689,0.372,3.026C132.445,28.513,132.366,28.454,132.263,28.49z
			 M125.578,11.383c-0.053,0.019-0.121,0.073-0.206,0.161l-0.051,0.105l-0.027-0.078c0.033-0.069,0.066-0.14,0.101-0.211
			c0.186-0.299,0.261-0.501,0.224-0.606c-0.107-0.137-0.583-0.407-1.428-0.81c-0.229-0.151-0.111-0.312,0.356-0.478
			c0.608-0.098,1.2-0.163,1.775-0.191c0.789,0.246,1.313,0.821,1.576,1.722c-0.043,0.541-0.404,0.757-1.086,0.648
			c-0.019-0.051-0.063-0.094-0.134-0.128l-0.211-0.101c-0.053,0.019-0.096-0.023-0.133-0.128
			C126.245,11.205,125.993,11.235,125.578,11.383z M129.824,15.931c-0.105,0.037-0.225,0.11-0.362,0.216
			c-0.189,0.126-0.327,0.234-0.412,0.322c0.559,1.907,0.996,3.303,1.31,4.186c0.404,0.15,0.778,0.134,1.124-0.048
			c0.66-0.116,0.838-1.263,0.535-3.437c-0.051-0.8-0.121-1.331-0.214-1.591C131.449,15.237,130.789,15.355,129.824,15.931z"/>
		<path fill="#FFFFFF" d="M161.386,22.705c-0.001-0.056,0.081-0.084,0.246-0.087l0.08-0.167c-0.001-0.056-0.002-0.111-0.003-0.166
			c-0.009-0.551-0.02-1.24-0.033-2.067c0.036-1.103,0.049-2.096,0.034-2.978c-1.848,1.684-3.621,2.844-5.319,3.477
			c-0.273,0.17-0.547,0.257-0.822,0.262c-0.055,0.055-0.082,0.056-0.083,0.001l-0.083,0.001c-0.11,0.002-0.165-0.025-0.166-0.08
			c0.162-0.168,0.599-0.451,1.31-0.849c2.13-1.247,3.873-2.515,5.23-3.806c-0.008-0.496-0.016-0.992-0.023-1.488
			c-0.715,0.177-1.565,0.356-2.556,0.538c-0.221,0.003-0.469,0.007-0.744,0.012c-0.046,0.608-0.452,1.056-1.219,1.343l-0.164,0.085
			l-0.168-0.163c-0.112-0.108-0.196-0.189-0.252-0.244c-0.056,0.001-0.083-0.053-0.085-0.164c-0.061-0.274,0.02-0.441,0.239-0.5
			c0.484-0.779,0.802-1.584,0.954-2.414c0.158-0.443,0.343-0.887,0.557-1.332c0.11-0.002,0.166,0.025,0.167,0.08l0.083-0.001
			l-0.082,0.084c0.113,0.164,0.256,0.465,0.429,0.903c0.489-0.449,1.035-0.706,1.642-0.771c0.438-0.117,0.851-0.207,1.236-0.268
			c-0.01-0.606,0.007-1.212,0.053-1.82c-0.876,0.4-1.645,0.605-2.306,0.616c-0.111,0.002-0.248,0.004-0.413,0.007
			c-0.663-0.099-1.024-0.232-1.082-0.396c0.159-0.388,1.312-0.737,3.457-1.049l0.08-0.167c0.052-0.111,0.106-0.167,0.162-0.168
			c0.166-0.003,0.303,0.023,0.415,0.076c0.054-0.001,0.109-0.001,0.165-0.002c0.056,0.055,0.111,0.081,0.167,0.08
			c0.109-0.002,0.33-0.033,0.66-0.094c-0.22,0.059-0.165,0.031,0.164-0.085l-0.087-0.247c0.055-0.001,0.11,0.027,0.167,0.08
			l0.166,0.08c0.219-0.113,0.401-0.778,0.547-1.994c-0.003-0.22-0.061-0.33-0.171-0.328s-0.22,0.059-0.328,0.171
			c-0.108,0.113-0.19,0.168-0.245,0.169c-0.056,0.001-0.165,0.031-0.329,0.088c-0.22,0.059-0.357,0.088-0.412,0.089
			c-0.056,0.001-0.139-0.025-0.249-0.079c-0.112-0.053-0.223-0.079-0.332-0.078l-0.003-0.165c-0.006-0.331,0.183-0.609,0.565-0.836
			c0.65-0.672,0.996-1.449,1.037-2.333c-0.002-0.11-0.03-0.109-0.083,0.001c-0.056,0.001-0.111,0.002-0.165,0.002
			c-0.164,0.059-0.303,0.088-0.412,0.09c-0.056,0-0.056,0,0,0c-0.002-0.11,0.079-0.194,0.244-0.252l0.081-0.084l0.08-0.167
			c0.053-0.111,0.106-0.194,0.161-0.251c0.163-0.168,0.437-0.255,0.823-0.261c0.442,0.104,0.667,0.348,0.673,0.733
			c-0.05,0.332-0.235,0.748-0.559,1.25c-0.269,0.446-0.456,0.807-0.561,1.084c0.876-0.29,1.729-0.496,2.554-0.621
			c0.438-0.117,0.826-0.041,1.161,0.229c-0.048,0.442-0.596,0.727-1.641,0.854c-0.055,0.001-0.138,0.002-0.248,0.004l-0.082,0.001
			c-0.111,0.002-0.276,0.004-0.496,0.008c-0.22,0.06-0.385,0.089-0.495,0.091c0.002,0.111,0.031,0.248,0.09,0.412
			c0.002,0.111,0.003,0.194,0.004,0.248c0.007,0.442-0.065,1.076-0.218,1.906c0.495-0.118,0.882,0.014,1.165,0.395
			c0.001,0.056,0.028,0.083,0.084,0.082l0.002,0.165c0.009,0.496-0.232,0.914-0.724,1.252c-0.383,0.227-0.816,0.648-1.303,1.262
			c0.001,0.056,0.002,0.138,0.004,0.248c0.057,0.11,0.003,0.194-0.161,0.251l-0.579,0.009c-0.111,0.001-0.33,0.034-0.66,0.093
			c0.009,0.496,0.017,0.992,0.024,1.488c1.703-0.303,3.106-0.464,4.21-0.482c0.385-0.006,0.855,0.097,1.411,0.308
			c0.277,0.161,0.448,0.489,0.512,0.984c0.004,0.221-0.129,0.527-0.398,0.917c-0.055,0.056-0.109,0.113-0.162,0.168
			c-0.432,0.668-0.971,1.367-1.62,2.094c-0.813,0.84-1.636,1.157-2.466,0.95c-0.333-0.104-0.64-0.292-0.919-0.564
			c-0.057-0.053,0.026-0.055,0.248-0.004c-0.001-0.054-0.001-0.054,0,0c-0.002-0.11-0.031-0.137-0.084-0.082
			c-0.111,0.002-0.166-0.024-0.167-0.08c-0.002-0.109-0.003-0.192-0.004-0.248l-0.163,0.168c-0.11,0.001-0.249-0.106-0.418-0.324
			c0.003,0.221,0.009,0.552,0.016,0.992c-0.039,0.993-0.053,1.82-0.042,2.482l0.015,0.909l0.005,0.331
			c-0.05,0.332-0.074,0.524-0.073,0.58c0.001,0.054-0.026,0.11-0.08,0.167c-0.111,0.002-0.165,0.03-0.164,0.085l-0.082,0.001
			C161.645,23.389,161.446,23.144,161.386,22.705z M159.745,8.258c-0.003-0.166,0.021-0.386,0.072-0.663
			c-0.005-0.275-0.009-0.496-0.011-0.661c-0.66,0.122-1.181,0.35-1.561,0.687c-0.652,0.562-1.394,0.767-2.223,0.615
			c-0.332-0.049-0.473-0.212-0.422-0.489c-0.003-0.166,0.159-0.388,0.485-0.669c0.107-0.167,0.188-0.278,0.242-0.335
			c0.107-0.167,0.324-0.446,0.648-0.837c0.163-0.168,0.54-0.67,1.134-1.507c-0.001-0.054,0.024-0.166,0.077-0.332
			c0.048-0.386,0.101-0.581,0.156-0.582l0.248-0.004c0.992,0.04,1.471,0.693,1.438,1.961l0.084,0.082
			c0.054-0.055,0.108-0.084,0.164-0.085c0.38-0.281,0.738-0.37,1.07-0.266l0.083-0.001c0.441,0.048,0.691,0.183,0.751,0.401
			c0.002,0.111-0.105,0.333-0.32,0.667c-0.271,0.335-0.432,0.614-0.482,0.835c-0.156,0.554-0.289,0.887-0.397,0.999l-0.081,0.084
			c0.001,0.056-0.081,0.14-0.244,0.252c-0.108,0.167-0.382,0.254-0.823,0.262C159.776,8.506,159.747,8.369,159.745,8.258z
			 M158.53,14.976c1.206-0.404,2.276-0.67,3.213-0.796c0.046-0.497,0.067-0.965,0.06-1.407c-0.495,0.063-0.879,0.18-1.151,0.35
			c-0.492,0.284-1.099,0.349-1.816,0.195C158.728,13.54,158.626,14.094,158.53,14.976z M163.154,14.488
			c-0.165,0.002-0.413,0.062-0.741,0.177c-0.051,0.332-0.072,0.636-0.068,0.911C162.778,15.129,163.048,14.767,163.154,14.488z
			 M164.062,14.391c-0.156,0.555-0.723,1.335-1.699,2.343l0.013,0.744c1.278,0.697,2.244,0.736,2.896,0.119
			c0.812-0.95,1.459-1.815,1.942-2.595c0.054-0.055,0.08-0.194,0.076-0.415c-0.005-0.275-0.366-0.435-1.083-0.479
			c-0.165,0.002-0.413,0.035-0.743,0.095C164.805,14.269,164.337,14.332,164.062,14.391z M162.5,9.868
			c-0.05,0.332-0.066,0.993-0.05,1.985c0.054,0,0.164-0.03,0.329-0.088c0.109-0.002,0.192-0.003,0.248-0.004
			c0.16-0.333,0.401-0.723,0.726-1.17c0.323-0.446,0.483-0.752,0.481-0.917c-0.003-0.165-0.087-0.247-0.253-0.244
			c-0.11,0.001-0.357,0.088-0.739,0.26C162.857,9.808,162.61,9.866,162.5,9.868z M163.215,18.209l0.001,0.083l0.164-0.085
			L163.215,18.209z M163.959,18.197l0.084,0.082l-0.002-0.083L163.959,18.197z M164.107,6.947l0.001,0.083
			C164.217,6.974,164.217,6.945,164.107,6.947z M164.371,18.107c-0.056,0.001-0.056,0.029,0.001,0.083
			C164.481,18.134,164.48,18.105,164.371,18.107z"/>
		<path fill="#FFFFFF" d="M186.146,19.539l0.105-0.052c0.051,0.017,0.27,0.062,0.653,0.133c0.382,0.072,0.601,0.115,0.653,0.133
			c1.829,0.268,3.476,0.561,4.938,0.88c0.226,0.019,0.584,0.081,1.072,0.187c2.02,0.391,3.554,0.675,4.6,0.853l0.548,0.185
			c1.27,0.545,1.826,1.139,1.668,1.784c-0.089,0.262-0.324,0.444-0.708,0.547l-0.471-0.159c-0.053-0.018-0.131-0.044-0.234-0.079
			c-0.645-0.333-1.385-0.641-2.22-0.923c-3.083-0.865-5.514-1.335-7.291-1.411c-0.053-0.018-0.175,0-0.366,0.051
			c-0.611,0.085-1.021,0.092-1.229,0.022c-0.313-0.106-0.601-0.29-0.861-0.552c-0.088-0.087-0.2-0.271-0.338-0.55
			c-0.052-0.192-0.104-0.297-0.155-0.314c-0.053-0.018-0.097-0.061-0.131-0.131C186.17,19.896,186.093,19.696,186.146,19.539z
			 M193.532,16.008l0.053-0.157c0.035-0.104,0.148-0.182,0.341-0.234c0.068-0.034,0.113-0.078,0.131-0.13
			c0.053-0.157,0.026-0.253-0.077-0.288c-0.801-0.386-1.322-1.085-1.562-2.097c0.034-0.104,0.025-0.166-0.026-0.183
			c0.054-0.332,0.507-0.382,1.36-0.152c0.365,0.123,0.731,0.247,1.098,0.37c0.818,0.16,1.62,0.197,2.405,0.113
			c0.87,0.352,1.251,0.858,1.146,1.521c-0.089,0.262-0.186,0.461-0.29,0.601c-0.298,0.191-0.812,0.337-1.544,0.439
			c-0.699,0.172-1.423,0.249-2.172,0.228c-0.052-0.018-0.174,0-0.366,0.051c-0.191,0.053-0.34,0.06-0.444,0.025L193.532,16.008z"/>
		<path fill="#FFFFFF" d="M220.494,33.103c-0.314,0.315-0.724,0.347-1.226,0.097c-0.384-0.227-0.487-0.586-0.314-1.08
			c0.147-1,0.435-2.138,0.863-3.411c0.22-0.735,0.585-1.116,1.093-1.141c0.363,0.072,0.563,0.263,0.604,0.572
			c0.019,0.155,0.055,0.288,0.109,0.399c1.118,0.447,2.305,0.984,3.564,1.61l1.822-2.354c0.438-0.566,0.703-0.955,0.796-1.162
			c0.067-0.087,0.112-0.191,0.137-0.312c0.135-0.173,0.334-0.16,0.595,0.042c0.378,0.502,0.174,1.216-0.611,2.141
			c-0.17,0.219-0.439,0.567-0.811,1.046c-0.449,0.489-0.774,0.864-0.977,1.126c1.05,0.535,1.945,1.088,2.687,1.663
			c0.6,0.396,0.905,0.946,0.918,1.651c0.054,0.74-0.146,1.178-0.6,1.314c-0.898,0.35-1.934,0.56-3.103,0.63
			c0.053,0.111,0.046,0.21-0.021,0.297c-0.348,0.358-0.744,0.331-1.189-0.084c-0.456-0.492-1.071-1.003-1.846-1.534
			c-0.135,0.175-0.36,0.419-0.673,0.734c-0.202,0.262-0.338,0.436-0.404,0.523c-0.338,0.437-0.833,1.029-1.483,1.78
			c-1.452,1.875-2.39,2.995-2.814,3.364c-0.517,0.576-0.9,0.801-1.151,0.677c-0.077,0.009-0.16-0.02-0.247-0.086
			c-0.088-0.068-0.136-0.141-0.146-0.217c0.068-0.088,0.079-0.148,0.036-0.182l0.202-0.261c0.092-0.209,0.154-0.335,0.188-0.377
			c2.098-2.35,3.962-4.531,5.593-6.546C221.527,33.66,220.996,33.353,220.494,33.103z M222.591,33.367
			c0.607-0.785,1.27-1.595,1.989-2.434c-1.26-0.626-2.273-1.028-3.042-1.205c-0.149,0.373-0.352,0.948-0.605,1.728
			c-0.115,0.329-0.202,0.575-0.259,0.74C221.011,32.389,221.65,32.779,222.591,33.367z M224.522,34.654
			c1.218-0.312,2.425-0.701,3.624-1.168c0.188-0.064,0.276-0.134,0.268-0.211c0.023-0.121-0.069-0.227-0.276-0.319
			c-0.426-0.26-1-0.6-1.721-1.019c-0.384-0.227-0.661-0.408-0.835-0.542c-0.237,0.305-0.63,0.767-1.18,1.388
			c-0.405,0.523-0.709,0.915-0.911,1.177c0.131,0.101,0.321,0.214,0.573,0.34C224.282,34.468,224.435,34.586,224.522,34.654z"/>
		<path fill="#FFFFFF" d="M244.926,62.557c-0.301-0.66-0.467-1.014-0.496-1.059c-0.242-0.369-0.544-0.83-0.907-1.383
			c-1.787,1.699-3.584,2.778-5.392,3.238c-0.443,0.026-0.961-0.161-1.556-0.562c-0.179-0.476-0.32-1.043-0.422-1.7
			c-0.059-0.292-0.08-0.476-0.064-0.551c-0.015-0.123,0.002-0.298,0.05-0.527c0.077-0.184,0.101-0.298,0.071-0.344
			c0.016-0.077,0.048-0.13,0.093-0.16c0.017-0.077,0.048-0.13,0.093-0.16c-0.03-0.047-0.021-0.184,0.026-0.413l0.069-0.045
			l0.045,0.069c0.448,1.486,0.892,2.514,1.33,3.084c0.211,0.322,0.653,0.395,1.328,0.216c1.348-0.357,2.662-1.218,3.942-2.584
			c-1.183-1.4-2.093-2.287-2.732-2.659c-0.319-0.186-0.676-0.579-1.068-1.178c-0.136-0.307-0.179-0.575-0.132-0.804
			c0.046-0.029,0.1,0,0.16,0.093c0.105,0.062,0.175,0.116,0.205,0.162c0.532,0.31,1.283,1.003,2.255,2.082
			c0.06,0.092,0.173,0.215,0.341,0.37c0.424,0.447,0.879,0.939,1.364,1.479c0.062-0.107,0.123-0.213,0.187-0.32
			c0.015-0.076,0.047-0.129,0.093-0.16l-0.045-0.069c-0.062-0.093-0.115-0.123-0.16-0.093l-0.045-0.069
			c0.045-0.03,0.053-0.069,0.023-0.114c0.136,0.108,0.235,0.108,0.298,0.002c0.216-0.274,0.287-0.618,0.215-1.031
			c0.015-0.076,0.008-0.138-0.021-0.184c-0.03-0.046,0.023-0.114,0.162-0.205c-0.107-0.062-0.268-0.155-0.479-0.279
			c-0.366-0.156-0.579-0.28-0.64-0.372c-0.212-0.323-0.095-0.598,0.351-0.823c0.551-0.164,1.025-0.146,1.422,0.057
			c-0.047,0.03-0.063,0.106-0.048,0.229c-0.017,0.076-0.048,0.13-0.093,0.16c-0.047,0.031-0.108,0.037-0.184,0.021l-0.069,0.045
			c-0.139,0.091-0.162,0.205-0.071,0.344c0.15,0.23,0.416,0.484,0.797,0.763c0.242,0.17,0.417,0.286,0.524,0.348
			c0.061,0.092,0.196,0.201,0.41,0.324c0.562,0.555,0.963,1.016,1.205,1.386l0.227,0.346c0.074,0.214-0.003,0.398-0.233,0.549
			c-0.047,0.03-0.093,0.061-0.139,0.09c0.014,0.123-0.078,0.183-0.276,0.182c-1.023-0.253-1.884-0.611-2.583-1.075
			c-0.047,0.03-0.102,0.099-0.162,0.205c-0.094,0.061-0.162,0.106-0.208,0.136c0.499,0.662,0.945,1.291,1.339,1.891
			c0.254,0.689,0.318,1.141,0.195,1.354C245.382,62.951,245.183,62.85,244.926,62.557z M240.625,52.226
			c0.2-0.197,0.942-0.222,2.226-0.074c0.075,0.016,0.213,0.024,0.413,0.026c0.565-0.042,0.878-0.017,0.939,0.076l0.045,0.069
			c-0.186,0.32-0.348,0.525-0.486,0.615c0.136,0.109,0.303,0.262,0.501,0.463c0.227,0.247,0.371,0.415,0.432,0.508
			c0.156-0.366,0.625-0.805,1.409-1.319c0.692-0.453,1.17-0.932,1.434-1.434c0.045-0.029,0.084-0.121,0.117-0.274
			c0.186-0.32,0.348-0.525,0.486-0.616l0.138-0.091c0.061,0.092,0.105,0.161,0.137,0.208c0.329,0.706,0.433,1.264,0.308,1.677
			c-0.372,0.639-1.173,1.329-2.401,2.069c-0.415,0.272-0.715,0.469-0.898,0.589c0.029,0.045,0.098,0.1,0.205,0.162
			c0.06,0.092,0.105,0.161,0.136,0.207c0.199-0.197,0.346-0.325,0.438-0.386c0.244-0.029,1.259-0.694,3.043-1.995
			c0.661-0.5,1.199-0.885,1.614-1.157c0.046-0.03,0.062-0.107,0.048-0.229l-0.045-0.069c-0.031-0.046-0.069-0.054-0.115-0.024
			c-0.137-0.108-0.175-0.215-0.111-0.322c0.045-0.03,0.168-0.045,0.367-0.043c0.579,0.081,0.853,0.396,0.818,0.947
			c-0.111,0.335-0.365,0.601-0.764,0.797c0.182,0.276,0.294,0.598,0.337,0.966c0.597,0.004,1.062-0.039,1.4-0.127
			c0.138-0.091,0.146-0.229,0.025-0.413c0.046-0.03,0.152,0.032,0.32,0.186l0.045,0.069c0.317,0.385,0.385,0.638,0.2,0.759
			c-0.23,0.151-0.491,0.256-0.782,0.315c-0.397-0.003-0.779,0.017-1.146,0.06c-0.017,0.076-0.019,0.175-0.003,0.298
			c-0.002,0.199-0.019,0.374-0.05,0.527c-0.017,0.076-0.032,0.153-0.048,0.229c0.028,0.245-0.003,0.397-0.095,0.458
			c0.393,0.599,0.641,1.029,0.747,1.29c0.459-0.104,0.872-0.276,1.242-0.518c0.045-0.03-0.029-0.245-0.225-0.644
			c-0.333-0.508-0.453-0.791-0.36-0.852l0.069-0.045c0.516,0.386,0.926,0.81,1.229,1.271c0.256,0.491,0.168,0.911-0.262,1.259
			c-0.047,0.031-0.216,0.075-0.506,0.134c-0.215,0.075-0.384,0.119-0.506,0.134c-0.384,0.119-0.958,0.298-1.724,0.537
			c-0.768,0.239-1.38,0.41-1.839,0.513c1.088,1.66,1.468,2.894,1.141,3.702c-0.046,0.03-0.078,0.083-0.093,0.16
			c-0.094,0.259-0.233,0.45-0.417,0.57c-0.186,0.121-0.392,0.157-0.62,0.11c-0.124,0.014-0.305-0.164-0.547-0.532l-0.021-0.184
			c-0.061-0.093-0.106-0.162-0.136-0.207c-0.091-0.139-0.267-0.354-0.522-0.646c-0.228-0.246-0.402-0.462-0.522-0.646
			c-0.03-0.047-0.068-0.153-0.112-0.322c-0.016-0.123-0.052-0.23-0.112-0.322c-0.107-0.062-0.122-0.085-0.045-0.069
			c0.121-0.015,0.503,0.165,1.143,0.537c0.685,0.342,1.035,0.474,1.052,0.398c0.279-0.579-0.013-1.376-0.876-2.392l-0.114-0.024
			c-0.475-0.02-0.818-0.091-1.031-0.214c-0.09-0.138-0.151-0.231-0.181-0.277c-0.03-0.046,0-0.099,0.093-0.16
			c0.045-0.03,0.092-0.06,0.139-0.091c0.26-0.105,0.346-0.227,0.255-0.365c-0.591-0.799-1.166-1.477-1.728-2.032
			c-0.169,0.044-0.307,0.036-0.413-0.026c-0.061-0.093-0.052-0.23,0.026-0.413c-0.167-0.154-0.41-0.423-0.728-0.808
			c-0.652-0.694-1.138-1.231-1.455-1.617c-1.654,0.293-2.679,0.239-3.072-0.162C240.123,52.719,240.256,52.468,240.625,52.226z
			 M245.104,57.398c-0.03-0.046-0.069-0.054-0.114-0.024c-0.03-0.046-0.085-0.077-0.16-0.093c-0.107-0.062-0.199-0.101-0.274-0.117
			c0.1,0.857,0.104,1.316,0.013,1.376c0.913,0.39,1.654,0.562,2.221,0.522C246.5,58.525,245.939,57.97,245.104,57.398z
			 M244.976,59.163l-0.115-0.024l0.046,0.069L244.976,59.163z M245.034,57.443l0.069-0.045c-0.047,0.031-0.085,0.021-0.114-0.024
			L245.034,57.443z M245.159,59.142l-0.046-0.069C245.097,59.148,245.112,59.172,245.159,59.142z M246.584,55.735
			c-0.046,0.03-0.093,0.061-0.138,0.09c0.424,0.447,0.811,0.886,1.159,1.316c0.062-0.106,0.186-0.319,0.372-0.639
			c0.107-0.137,0.169-0.244,0.186-0.32C247.536,56.132,247.01,55.983,246.584,55.735z M247.3,55.167
			c0.212,0.124,0.571,0.219,1.075,0.283c0.279-0.578,0.359-0.961,0.238-1.145C248.198,54.578,247.76,54.866,247.3,55.167z
			 M251.054,56.068c-0.354,0.166-1.004,0.229-1.95,0.191c-0.174,0.641-0.514,1.128-1.021,1.46c0.12,0.184,0.227,0.346,0.317,0.484
			c0.519-0.011,0.933-0.084,1.24-0.22c0.015-0.076-0.022-0.184-0.112-0.322c-0.195-0.599-0.153-0.987,0.123-1.169
			c0.139-0.09,0.229-0.051,0.274,0.117c-0.138,0.09-0.057,0.366,0.246,0.828l0.091,0.138l0.091,0.138
			c0.412-0.073,0.749-0.162,1.011-0.268l-0.408-0.622l-0.114-0.024l0.184-0.021l0.069-0.045
			C251.126,56.58,251.112,56.359,251.054,56.068z M250.579,55.193c0.092-0.061,0.109-0.336,0.053-0.825
			c-0.505-0.065-1.032-0.115-1.582-0.15c0.148,0.429,0.199,0.858,0.15,1.286C249.843,55.478,250.303,55.374,250.579,55.193z
			 M250.643,52.877c-0.322,0.211-0.669,0.438-1.037,0.68c0.075,0.016,0.175,0.017,0.298,0.002c0.122-0.015,0.358-0.005,0.711,0.028
			c0.016-0.076,0.039-0.19,0.071-0.343C250.641,53.076,250.626,52.953,250.643,52.877z M250.613,56.752l0.114,0.024
			C250.681,56.807,250.643,56.798,250.613,56.752z"/>
	</g>
	<g>
		<path fill="#FFFFFF" d="M268.088,86.504v8.17h-12.914v-1.717h11.388v-6.453H268.088z"/>
		<path fill="#FFFFFF" d="M256.657,99.751c0.578-0.526,1.286-0.929,2.125-1.21c0.838-0.28,1.789-0.42,2.854-0.42
			c1.063,0,2.016,0.143,2.857,0.429c0.841,0.286,1.542,0.687,2.103,1.201c0.585,0.532,1.023,1.161,1.318,1.886
			s0.442,1.554,0.442,2.485c0,0.908-0.15,1.733-0.45,2.476c-0.301,0.743-0.737,1.375-1.311,1.895
			c-0.572,0.521-1.274,0.921-2.107,1.201c-0.832,0.28-1.783,0.421-2.853,0.421c-1.053,0-1.996-0.139-2.832-0.417
			c-0.836-0.277-1.551-0.682-2.146-1.214c-0.566-0.509-1-1.141-1.301-1.895s-0.451-1.577-0.451-2.467
			c0-0.925,0.151-1.756,0.455-2.494C255.664,100.892,256.097,100.266,256.657,99.751z M261.636,99.907
			c-1.677,0-2.971,0.375-3.882,1.127c-0.91,0.751-1.365,1.778-1.365,3.079c0,1.312,0.455,2.343,1.365,3.092
			c0.911,0.749,2.205,1.123,3.882,1.123c1.693,0,2.99-0.382,3.89-1.145c0.898-0.763,1.349-1.787,1.349-3.07s-0.45-2.305-1.349-3.066
			C264.626,100.287,263.329,99.907,261.636,99.907z"/>
		<path fill="#FFFFFF" d="M256.741,114.613c0.61-0.488,1.343-0.847,2.197-1.073s1.812-0.307,2.874-0.239
			c1.062,0.067,2.004,0.271,2.825,0.609s1.496,0.782,2.022,1.332c0.55,0.567,0.948,1.223,1.196,1.966
			c0.249,0.742,0.344,1.578,0.285,2.508c-0.058,0.905-0.26,1.72-0.607,2.442c-0.347,0.723-0.822,1.325-1.427,1.809
			c-0.604,0.482-1.33,0.838-2.179,1.065c-0.849,0.227-1.807,0.307-2.875,0.239c-1.05-0.066-1.983-0.265-2.799-0.595
			c-0.816-0.33-1.505-0.779-2.065-1.348c-0.534-0.544-0.927-1.201-1.179-1.974c-0.252-0.771-0.351-1.603-0.294-2.491
			c0.059-0.923,0.263-1.743,0.612-2.459C255.679,115.688,256.149,115.091,256.741,114.613z M261.7,115.084
			c-1.674-0.106-2.988,0.188-3.945,0.88c-0.956,0.692-1.476,1.688-1.558,2.986c-0.083,1.31,0.306,2.367,1.168,3.172
			c0.861,0.805,2.129,1.26,3.802,1.366c1.69,0.107,3.009-0.191,3.954-0.896c0.946-0.705,1.459-1.697,1.54-2.979
			c0.082-1.281-0.303-2.329-1.151-3.146C264.66,115.652,263.391,115.191,261.7,115.084z"/>
		<path fill="#FFFFFF" d="M266.628,131.205l-0.374,1.676l-6.171-1.377l-1.402,6.29l6.171,1.376l-0.374,1.676l-12.604-2.812
			l0.374-1.676l4.943,1.103l1.403-6.289l-4.943-1.103l0.373-1.676L266.628,131.205z"/>
		<path fill="#FFFFFF" d="M262.149,145.465c0.016,0.347,0.033,0.662,0.055,0.945c0.021,0.284,0.018,0.645-0.008,1.08
			c-0.024,0.369-0.074,0.76-0.15,1.174s-0.203,0.853-0.382,1.316c-0.337,0.874-0.767,1.621-1.287,2.241
			c-0.521,0.621-1.146,1.095-1.872,1.421c-0.712,0.32-1.52,0.475-2.422,0.461c-0.903-0.014-1.878-0.222-2.925-0.625
			c-0.992-0.383-1.825-0.865-2.5-1.447c-0.674-0.582-1.179-1.241-1.515-1.979c-0.325-0.714-0.486-1.487-0.481-2.318
			c0.005-0.832,0.178-1.69,0.519-2.575c0.249-0.647,0.576-1.263,0.981-1.848c0.405-0.584,0.956-1.194,1.653-1.83l1.902,0.733
			l-0.047,0.121c-0.812,0.449-1.47,0.951-1.975,1.507c-0.506,0.555-0.901,1.204-1.188,1.949c-0.235,0.609-0.349,1.196-0.34,1.761
			c0.009,0.563,0.147,1.117,0.415,1.66c0.261,0.528,0.66,1.016,1.198,1.462c0.537,0.445,1.211,0.824,2.02,1.137
			c0.848,0.326,1.62,0.492,2.318,0.498c0.697,0.006,1.308-0.099,1.83-0.312c0.545-0.224,1.011-0.551,1.396-0.981
			s0.687-0.926,0.903-1.487c0.297-0.771,0.443-1.545,0.439-2.321c-0.005-0.776-0.157-1.561-0.46-2.353l0.044-0.113L262.149,145.465z
			"/>
		<path fill="#FFFFFF" d="M253.945,158.243c0.439,0.246,0.816,0.591,1.131,1.035s0.518,0.934,0.609,1.469
			c0.098,0.584,0.087,1.195-0.032,1.835c-0.118,0.639-0.39,1.337-0.812,2.094c-0.454,0.812-0.938,1.501-1.452,2.064
			c-0.515,0.564-1.107,1.099-1.78,1.604l-1.878-1.05l0.06-0.106c0.793-0.305,1.527-0.759,2.202-1.362
			c0.675-0.603,1.195-1.232,1.562-1.889c0.52-0.928,0.749-1.748,0.69-2.46c-0.06-0.712-0.379-1.23-0.959-1.555
			c-0.5-0.279-0.937-0.363-1.311-0.251s-0.767,0.381-1.177,0.808c-0.312,0.322-0.626,0.686-0.938,1.091
			c-0.312,0.404-0.657,0.826-1.034,1.264c-0.771,0.881-1.547,1.42-2.329,1.615c-0.781,0.195-1.583,0.063-2.406-0.396
			c-0.943-0.527-1.494-1.358-1.651-2.493s0.106-2.315,0.792-3.542c0.443-0.792,0.926-1.477,1.446-2.053
			c0.521-0.576,1.035-1.058,1.542-1.443l1.771,0.99l-0.06,0.106c-0.603,0.226-1.22,0.621-1.85,1.186
			c-0.631,0.565-1.15,1.214-1.56,1.945c-0.449,0.803-0.643,1.54-0.582,2.214c0.061,0.673,0.354,1.156,0.879,1.45
			c0.469,0.262,0.905,0.347,1.308,0.254c0.403-0.093,0.847-0.404,1.329-0.937c0.251-0.283,0.594-0.694,1.027-1.233
			s0.819-0.986,1.157-1.341c0.69-0.714,1.378-1.157,2.064-1.33S253.138,157.792,253.945,158.243z"/>
		<path fill="#FFFFFF" d="M239.127,185.786l-1.238,1.189l-4.379-4.562l-4.648,4.463l4.378,4.561L232,192.627l-8.942-9.316
			l1.239-1.189l3.508,3.654l4.648-4.462l-3.507-3.654l1.238-1.189L239.127,185.786z"/>
		<path fill="#FFFFFF" d="M226.981,195.589c-0.393,0.67-0.862,1.343-1.409,2.019s-1.14,1.237-1.779,1.685
			c-0.824,0.577-1.659,0.992-2.506,1.245c-0.846,0.254-1.669,0.322-2.471,0.206c-0.81-0.118-1.588-0.43-2.336-0.933
			c-0.748-0.504-1.444-1.218-2.091-2.141c-1.184-1.691-1.624-3.372-1.321-5.041c0.303-1.67,1.316-3.107,3.041-4.314
			c0.602-0.421,1.267-0.779,1.995-1.074c0.729-0.294,1.577-0.522,2.544-0.685l1.168,1.67l-0.128,0.09
			c-0.226-0.011-0.544-0.011-0.952,0c-0.409,0.011-0.791,0.049-1.147,0.115c-0.43,0.082-0.886,0.219-1.368,0.412
			s-0.986,0.474-1.513,0.842c-1.184,0.828-1.854,1.864-2.012,3.107c-0.157,1.242,0.219,2.513,1.127,3.811
			c0.958,1.369,2.063,2.182,3.315,2.438c1.252,0.257,2.499-0.05,3.74-0.918c0.454-0.318,0.876-0.681,1.266-1.088
			c0.39-0.406,0.705-0.8,0.946-1.181l-1.814-2.594l-2.836,1.984l-0.865-1.236l4.229-2.959L226.981,195.589z"/>
		<path fill="#FFFFFF" d="M214.066,205.196l-4.506,2.388l-0.617-1.165l1.494-0.792l-4.813-9.08l-1.494,0.792l-0.617-1.165
			l4.506-2.388l0.617,1.164l-1.494,0.792l4.813,9.081l1.494-0.792L214.066,205.196z"/>
		<path fill="#FFFFFF" d="M204.801,209.909l-1.604,0.615l-2.263-5.904l-6.017,2.307l2.263,5.903l-1.604,0.614l-4.622-12.059
			l1.604-0.614l1.812,4.729l6.018-2.306l-1.812-4.729l1.604-0.615L204.801,209.909z"/>
		<path fill="#FFFFFF" d="M174.541,218.05l-8.72,0.629l-0.13-1.808c0.567-0.562,1.137-1.126,1.708-1.688
			c0.571-0.563,1.101-1.12,1.588-1.671c1.03-1.152,1.728-2.06,2.091-2.721c0.364-0.661,0.52-1.357,0.467-2.09
			c-0.048-0.669-0.307-1.177-0.775-1.522c-0.468-0.346-1.098-0.49-1.888-0.434c-0.524,0.038-1.086,0.172-1.684,0.4
			c-0.599,0.229-1.175,0.554-1.729,0.977l-0.087,0.006l-0.131-1.816c0.395-0.231,0.928-0.455,1.6-0.672
			c0.671-0.216,1.327-0.348,1.967-0.394c1.32-0.096,2.379,0.148,3.175,0.731c0.795,0.583,1.232,1.42,1.312,2.51
			c0.035,0.49,0.006,0.952-0.088,1.385c-0.093,0.433-0.247,0.848-0.462,1.246c-0.199,0.374-0.438,0.744-0.715,1.112
			c-0.278,0.368-0.618,0.778-1.021,1.23c-0.573,0.649-1.168,1.282-1.784,1.897c-0.617,0.616-1.193,1.187-1.729,1.712l6.93-0.5
			L174.541,218.05z"/>
		<path fill="#FFFFFF" d="M160.122,218.631l-2.071-0.063l0.075-2.47l2.071,0.062L160.122,218.631z"/>
		<path fill="#FFFFFF" d="M152.62,206.824c0.435,0.649,0.729,1.409,0.882,2.28c0.153,0.87,0.151,1.832-0.006,2.884
			c-0.157,1.053-0.44,1.974-0.848,2.763c-0.407,0.79-0.907,1.424-1.499,1.902c-0.612,0.499-1.3,0.841-2.061,1.025
			c-0.762,0.184-1.603,0.207-2.522,0.069c-0.898-0.134-1.692-0.405-2.383-0.812s-1.25-0.932-1.68-1.575
			c-0.431-0.644-0.723-1.397-0.877-2.262c-0.154-0.865-0.152-1.826,0.006-2.885c0.156-1.04,0.433-1.953,0.831-2.738
			s0.904-1.434,1.519-1.943c0.587-0.485,1.275-0.82,2.066-1.007c0.791-0.186,1.626-0.213,2.507-0.081
			c0.915,0.137,1.715,0.41,2.398,0.819C151.638,205.673,152.193,206.193,152.62,206.824z M151.728,211.725
			c0.248-1.659,0.068-2.994-0.541-4.006c-0.608-1.012-1.556-1.613-2.843-1.806c-1.298-0.194-2.385,0.104-3.26,0.894
			c-0.875,0.789-1.437,2.014-1.685,3.672c-0.251,1.676-0.065,3.015,0.557,4.017s1.567,1.598,2.837,1.787
			c1.27,0.19,2.347-0.104,3.231-0.88S151.478,213.399,151.728,211.725z"/>
		<path fill="#FFFFFF" d="M135.25,215.259l-2.026-0.639l-2.366-12.859l-3.474,11.018l-1.53-0.482l3.883-12.316l2.54,0.801
			l2.155,11.737l3.171-10.058l1.53,0.482L135.25,215.259z"/>
		<path fill="#FFFFFF" d="M109.054,198.327c-0.535,0.769-1.086,1.38-1.652,1.835s-1.174,0.738-1.823,0.85
			c-0.617,0.106-1.227,0.073-1.831-0.102c-0.604-0.174-1.232-0.487-1.882-0.939c-0.665-0.463-1.182-0.953-1.554-1.473
			c-0.372-0.519-0.606-1.066-0.706-1.643c-0.114-0.656-0.063-1.319,0.151-1.986c0.215-0.668,0.601-1.403,1.16-2.205l4.414-6.343
			l1.41,0.981l-4.464,6.413c-0.4,0.575-0.676,1.056-0.829,1.441c-0.153,0.387-0.231,0.78-0.234,1.18
			c-0.006,0.453,0.116,0.884,0.365,1.289c0.249,0.406,0.625,0.784,1.128,1.135c0.508,0.354,0.993,0.576,1.457,0.67
			c0.463,0.094,0.911,0.058,1.342-0.106c0.373-0.142,0.72-0.359,1.042-0.654c0.321-0.294,0.662-0.7,1.021-1.217l4.489-6.449
			l1.409,0.98L109.054,198.327z"/>
		<path fill="#FFFFFF" d="M100.463,184.195c-0.019,0.782-0.215,1.573-0.591,2.373s-0.93,1.586-1.665,2.355
			c-0.734,0.77-1.495,1.36-2.283,1.772c-0.788,0.411-1.561,0.642-2.32,0.692c-0.788,0.056-1.546-0.06-2.275-0.347
			c-0.729-0.288-1.43-0.753-2.104-1.395c-0.657-0.627-1.151-1.306-1.481-2.035c-0.331-0.73-0.486-1.482-0.468-2.256
			c0.019-0.773,0.213-1.558,0.585-2.354c0.372-0.796,0.926-1.581,1.665-2.354c0.726-0.762,1.478-1.35,2.255-1.763
			s1.564-0.651,2.36-0.716c0.759-0.059,1.516,0.063,2.27,0.366c0.753,0.303,1.453,0.762,2.097,1.376
			c0.67,0.639,1.167,1.322,1.491,2.051C100.323,182.689,100.478,183.434,100.463,184.195z M96.915,187.691
			c1.157-1.214,1.778-2.41,1.862-3.588c0.084-1.178-0.344-2.215-1.286-3.112c-0.95-0.906-2.01-1.288-3.18-1.146
			s-2.334,0.82-3.491,2.034c-1.169,1.227-1.787,2.428-1.855,3.605c-0.068,1.177,0.363,2.209,1.292,3.095
			c0.929,0.886,1.979,1.266,3.15,1.139C94.576,189.593,95.746,188.917,96.915,187.691z"/>
		<path fill="#FFFFFF" d="M81.39,181.092l-1.044-1.363l5.019-3.845l-3.919-5.115l-5.019,3.845l-1.044-1.363l10.251-7.854
			l1.044,1.363l-4.021,3.08l3.919,5.115l4.021-3.08l1.044,1.363L81.39,181.092z"/>
		<path fill="#FFFFFF" d="M72.395,168.719l-4.901-8.806l1.395-0.776l12.407,2.157l-3.708-6.661l1.334-0.742l4.665,8.381
			l-1.356,0.756l-12.482-2.205l3.981,7.154L72.395,168.719z"/>
		<path fill="#FFFFFF" d="M66.183,154.924c-0.551-0.548-1.085-1.17-1.603-1.868s-0.914-1.413-1.187-2.145
			c-0.353-0.941-0.546-1.854-0.581-2.736c-0.034-0.883,0.105-1.697,0.418-2.444c0.316-0.755,0.812-1.431,1.486-2.029
			c0.674-0.598,1.54-1.095,2.595-1.49c1.933-0.724,3.67-0.73,5.211-0.021c1.541,0.711,2.68,2.051,3.418,4.022
			c0.257,0.688,0.438,1.421,0.542,2.2s0.113,1.657,0.028,2.634l-1.909,0.715l-0.055-0.146c0.067-0.217,0.146-0.524,0.238-0.923
			c0.091-0.398,0.15-0.778,0.175-1.14c0.028-0.437,0.008-0.912-0.058-1.428c-0.067-0.516-0.212-1.073-0.438-1.675
			c-0.507-1.354-1.342-2.262-2.506-2.724c-1.164-0.463-2.488-0.416-3.972,0.14c-1.565,0.586-2.627,1.453-3.188,2.602
			s-0.576,2.432-0.044,3.851c0.195,0.52,0.44,1.019,0.737,1.497c0.296,0.479,0.599,0.883,0.907,1.212l2.964-1.11l-1.213-3.24
			l1.414-0.529l1.81,4.832L66.183,154.924z"/>
		<path fill="#FFFFFF" d="M59.791,139.138l-0.427-2.081l10.083-8.322l-11.316,2.324l-0.323-1.571l12.649-2.599l0.536,2.607
			l-9.207,7.594l10.331-2.122l0.323,1.571L59.791,139.138z"/>
		<path fill="#FFFFFF" d="M57.138,124.861l-0.104-1.827l3.521-1.47l-0.318-5.576l-3.665-1.059l-0.1-1.74l13.161,3.957l0.13,2.286
			L57.138,124.861z M61.998,120.953l6.201-2.621l-6.459-1.908L61.998,120.953z"/>
		<path fill="#FFFFFF" d="M61.818,109.902c-0.937,0-1.753-0.102-2.45-0.309c-0.697-0.205-1.276-0.541-1.739-1.01
			c-0.439-0.445-0.761-0.965-0.963-1.561s-0.304-1.29-0.304-2.082c0-0.81,0.107-1.515,0.321-2.116
			c0.214-0.602,0.529-1.107,0.945-1.518c0.474-0.468,1.046-0.805,1.717-1.01c0.671-0.205,1.495-0.308,2.472-0.308h7.728v1.717
			h-7.814c-0.7,0-1.252,0.048-1.657,0.144c-0.404,0.095-0.771,0.256-1.101,0.481c-0.376,0.254-0.659,0.6-0.85,1.037
			s-0.286,0.961-0.286,1.574c0,0.619,0.094,1.145,0.282,1.578s0.473,0.781,0.854,1.041c0.33,0.227,0.707,0.387,1.132,0.482
			c0.425,0.094,0.952,0.143,1.583,0.143h7.858v1.717H61.818z"/>
		<path fill="#FFFFFF" d="M57.586,96.476C57.262,95.771,56.98,95,56.74,94.165s-0.36-1.644-0.36-2.424
			c0-1.006,0.139-1.929,0.416-2.767c0.278-0.838,0.694-1.553,1.249-2.143c0.561-0.595,1.262-1.055,2.103-1.379
			c0.841-0.324,1.826-0.485,2.953-0.485c2.064,0,3.693,0.603,4.887,1.808s1.791,2.86,1.791,4.965c0,0.734-0.088,1.484-0.265,2.25
			s-0.476,1.591-0.897,2.476H66.58v-0.156c0.139-0.179,0.321-0.439,0.546-0.78c0.226-0.341,0.413-0.677,0.563-1.006
			c0.179-0.399,0.328-0.851,0.447-1.357c0.119-0.506,0.178-1.08,0.178-1.722c0-1.446-0.464-2.589-1.392-3.43
			c-0.928-0.841-2.185-1.262-3.769-1.262c-1.671,0-2.97,0.439-3.898,1.318s-1.392,2.076-1.392,3.591
			c0,0.555,0.055,1.108,0.165,1.661c0.109,0.552,0.251,1.037,0.425,1.453h3.166v-3.46h1.509v5.161H57.586z"/>
	</g>
	<g>
		<path fill="#FFFFFF" d="M189.385,150.753h-2.014v-1.069h3.2v11.825h-0.593h-0.594V150.753z"/>
		<path fill="#FFFFFF" d="M198.782,161.485h-1.272c1.093-1.608,1.965-2.919,2.615-3.934c-0.302,0.146-0.627,0.218-0.976,0.218
			c-1.166,0-2.132-0.395-2.899-1.184s-1.151-1.777-1.151-2.965s0.384-2.175,1.151-2.961s1.733-1.18,2.899-1.18
			c1.135,0,2.092,0.386,2.872,1.156c0.781,0.771,1.171,1.716,1.171,2.835c0,0.791-0.229,1.604-0.687,2.437
			C202.053,156.736,200.812,158.596,198.782,161.485z M202.014,153.621c0-0.88-0.271-1.613-0.815-2.2
			c-0.544-0.586-1.227-0.879-2.049-0.879s-1.507,0.293-2.053,0.879c-0.547,0.587-0.819,1.32-0.819,2.2
			c0,0.886,0.272,1.622,0.819,2.208c0.546,0.586,1.23,0.879,2.053,0.879s1.507-0.294,2.053-0.883
			C201.743,155.242,202.014,154.507,202.014,153.621z"/>
		<path fill="#FFFFFF" d="M210.349,152.415c0-0.535-0.178-0.981-0.534-1.338s-0.806-0.535-1.347-0.535
			c-0.51,0-0.93,0.195-1.261,0.585c-0.33,0.391-0.501,0.891-0.511,1.499h-1.179c0.031-0.932,0.325-1.688,0.882-2.271
			s1.267-0.874,2.131-0.874c0.869,0,1.591,0.273,2.166,0.819c0.575,0.547,0.862,1.233,0.862,2.061c0,0.822-0.288,1.507-0.866,2.053
			c-0.125,0.115-0.255,0.219-0.391,0.312c0.339,0.156,0.648,0.356,0.93,0.602c0.718,0.624,1.077,1.41,1.077,2.356
			c0,1.155-0.358,2.116-1.073,2.881c-0.716,0.765-1.617,1.147-2.705,1.147c-1.077,0-1.971-0.368-2.681-1.104
			c-0.711-0.736-1.074-1.672-1.089-2.807h1.178c0,0.797,0.247,1.471,0.742,2.022c0.494,0.551,1.101,0.827,1.818,0.827
			c0.755,0,1.382-0.253,1.881-0.758c0.5-0.504,0.75-1.137,0.75-1.896c0-0.765-0.25-1.399-0.75-1.904
			c-0.499-0.505-1.126-0.757-1.881-0.757h-0.726v-1.062h0.694c0.541,0,0.991-0.177,1.351-0.531
			C210.172,153.389,210.349,152.946,210.349,152.415z"/>
		<path fill="#FFFFFF" d="M215.247,160.521c-0.716-0.794-1.073-1.864-1.073-3.212v-3.419c0-1.353,0.357-2.426,1.073-3.22
			c0.715-0.794,1.679-1.19,2.892-1.19c1.223,0,2.19,0.396,2.903,1.19s1.069,1.867,1.069,3.22v3.419c0,1.348-0.356,2.418-1.069,3.212
			s-1.681,1.19-2.903,1.19C216.926,161.712,215.962,161.315,215.247,160.521z M220.219,159.733c0.477-0.611,0.714-1.503,0.714-2.674
			v-2.927c0-1.15-0.241-2.036-0.726-2.658c-0.483-0.622-1.174-0.933-2.068-0.933c-0.89,0-1.577,0.311-2.061,0.933
			c-0.484,0.622-0.726,1.508-0.726,2.658v2.927c0,1.171,0.236,2.062,0.71,2.674s1.165,0.917,2.076,0.917
			C219.049,160.65,219.742,160.345,220.219,159.733z"/>
	</g>
</g>
<g>
	<path d="M0.168,289.152C0.055,288.816,0,288.48,0,288.144c2.016-1.344,3.806-3.359,5.375-6.047
		c1.68-3.359,3.247-7.055,4.703-11.086c1.231-3.695,2.126-7.501,2.688-11.422c-1.457,0.336-2.745-0.168-3.863-1.512
		c0.223-0.782,0.895-1.176,2.016-1.176c1.79,0.113,4.142-0.055,7.055-0.504c0.446,0,0.895-0.11,1.344-0.336
		c0-0.223-0.113-0.614-0.336-1.176c-0.113-0.223-0.168-0.391-0.168-0.504c-0.562-1.118-1.233-1.79-2.016-2.016
		c-0.562-0.336-0.504-0.84,0.168-1.512c0.672-0.559,1.512-0.84,2.52-0.84c2.239,1.008,3.134,2.8,2.688,5.375
		c1.344-0.223,3.302-0.446,5.879-0.672c0.223,0,0.391,0,0.504,0c0.336-0.223,0.672-0.336,1.008-0.336
		c0.11,0.113,0.223,0.226,0.336,0.336c0.895,0.562,1.344,1.065,1.344,1.512c-0.113,0.672-0.729,0.953-1.848,0.84
		c-1.457-0.446-2.52-0.614-3.191-0.504c0.559,0.562,0.84,1.065,0.84,1.512c0.11,0.226,0,0.785-0.336,1.68
		c-0.226,0.449-0.336,0.729-0.336,0.84c0.446,0,0.84,0.058,1.176,0.168c1.008,0.113,1.512,0.449,1.512,1.008
		c-0.336,0.336-1.233,0.504-2.688,0.504c-0.226,0-0.394,0-0.504,0c-0.785,2.016-1.569,3.249-2.352,3.695
		c0.336,0,0.895-0.055,1.68-0.168c2.352-0.223,4.086-0.336,5.207-0.336c1.344,0.113,2.016,0.394,2.016,0.84
		c0,0.226-0.168,0.449-0.504,0.672c-0.336,0.336-1.008,0.504-2.016,0.504c-0.336,0-0.785-0.055-1.344-0.168
		c-0.672-0.11-1.176-0.168-1.512-0.168c-2.464,0-4.089,0.113-4.871,0.336c0.223,0.897,0.336,1.569,0.336,2.016
		c0.336,0,1.008-0.055,2.016-0.168c0.895-0.11,1.454-0.168,1.68-0.168c1.903,0.113,2.966,0.672,3.191,1.68
		c0,0.449-0.336,1.344-1.008,2.688c0,0.113-0.058,0.281-0.168,0.504c-0.449,2.128-0.953,3.695-1.512,4.703
		c-0.336,0.672-1.008,1.065-2.016,1.176c-0.672,0-1.233-0.336-1.68-1.008c-0.226-0.336-0.394-0.559-0.504-0.672
		c-0.449,0-1.121,0.058-2.016,0.168c-0.785,0-1.344,0-1.68,0c-0.897,0-1.569-0.223-2.016-0.672
		c-1.121-2.239-1.625-4.031-1.512-5.375c0.11-1.454,0.391-2.184,0.84-2.184c0.223,0,0.504,0.281,0.84,0.84
		c0.446-0.223,1.231-0.504,2.352-0.84c0.559-0.11,1.008-0.223,1.344-0.336c0-1.008-0.058-1.68-0.168-2.016
		c-1.121,0.113-3.023,0.449-5.711,1.008c-0.897,0.113-1.512,0.226-1.848,0.336c-1.905,6.832-4.199,12.262-6.887,16.293
		c-1.344,1.903-2.913,3.134-4.703,3.695C1.008,289.152,0.614,289.152,0.168,289.152z M16.461,258.078
		c-0.672,0.226-1.569,0.562-2.688,1.008c-0.226,0.113-0.394,0.168-0.504,0.168c0.672,0.449,1.118,0.953,1.344,1.512
		c0.11,0.449,0.168,1.008,0.168,1.68c1.344-0.11,2.071-0.223,2.184-0.336c-0.449-1.231-0.449-2.294,0-3.191
		C17.075,258.246,16.907,257.967,16.461,258.078z M14.445,263.788c-0.113,0.336-0.281,1.008-0.504,2.016
		c-0.336,0.897-0.562,1.569-0.672,2.016c1.454-0.11,3.079-0.391,4.871-0.84c-0.449-0.895-0.729-1.958-0.84-3.191
		c-0.336,0.113-1.008,0.113-2.016,0C14.949,263.788,14.668,263.788,14.445,263.788z M13.605,283.273c0-1.68,0.11-2.52,0.336-2.52
		c0,0.336,0.055,0.562,0.168,0.672l0.168,0.168c0.11,0.113,0.336,0.394,0.672,0.84c0.336,0.672,0.614,0.953,0.84,0.84
		c0.446,0,0.672-0.055,0.672-0.168c0.223-0.11,0.559-0.336,1.008-0.672c0.446-0.223,0.84-0.446,1.176-0.672c0.223,0,0.391,0,0.504,0
		c0,0.113-0.226,0.394-0.672,0.84c-0.672,0.336-1.065,0.672-1.176,1.008c-0.336,0.336-0.504,0.672-0.504,1.008
		c-0.113,0-0.226,0.168-0.336,0.504c-0.336,0.782-0.729,1.176-1.176,1.176C13.941,285.624,13.38,284.617,13.605,283.273z
		 M17.133,257.91c1.118,0.226,1.848,0.84,2.184,1.848c0.223,0.336,0.446,0.897,0.672,1.68c0,0.113,0,0.226,0,0.336
		c0.446-0.11,1.118-0.278,2.016-0.504c0.782-0.223,1.344-0.336,1.68-0.336c0.336-1.008,0.559-2.126,0.672-3.359
		c0-0.446-0.168-0.672-0.504-0.672c-0.672-0.223-1.401-0.223-2.184,0c-0.113,0-0.281,0.058-0.504,0.168
		c-0.336,0.226-0.617,0.336-0.84,0.336c-0.113,0-0.281-0.055-0.504-0.168h-0.168C19.091,257.35,18.251,257.574,17.133,257.91z
		 M20.66,271.347c-0.449,0.113-1.121,0.281-2.016,0.504c-0.562,0.226-1.008,0.394-1.344,0.504c0.11,0.113,0.223,0.449,0.336,1.008
		c0-0.223,0.055-0.11,0.168,0.336c0.223,0,0.614-0.055,1.176-0.168c0.782-0.11,1.286-0.223,1.512-0.336
		c0-0.223,0.055-0.559,0.168-1.008C20.66,271.741,20.66,271.46,20.66,271.347z M20.324,274.538c-0.672,0-1.401,0-2.184,0
		c0.11,0.336,0.223,0.897,0.336,1.68c0.223,0.562,0.336,0.953,0.336,1.176c0.223,0,0.614-0.055,1.176-0.168l0.336-0.168
		C20.324,276.163,20.324,275.323,20.324,274.538z M20.156,266.476c0.336,0,0.84-0.168,1.512-0.504
		c0.559-0.672,1.118-1.848,1.68-3.527c-1.233,0.113-2.241,0.336-3.023,0.672C20.435,264.014,20.379,265.132,20.156,266.476z
		 M23.852,278.066c0.336,0,0.559-0.11,0.672-0.336c0.11-0.223,0.223-0.504,0.336-0.84c0.559-1.231,0.895-2.071,1.008-2.52
		c0-0.223,0.11-0.614,0.336-1.176c0.223-0.895,0.336-1.567,0.336-2.016c-0.113-0.223-0.729-0.336-1.848-0.336
		c-0.785,0-1.457,0.058-2.016,0.168c0,0.897-0.058,1.512-0.168,1.848c1.118,0,1.958,0.058,2.52,0.168c0,0.562-0.84,1.008-2.52,1.344
		c-0.113,0.226-0.168,0.617-0.168,1.176c-0.113,0.562-0.168,0.953-0.168,1.176c1.008,0,1.68,0.168,2.016,0.504l-0.336,0.336
		c-0.226,0.113-0.336,0.226-0.336,0.336L23.852,278.066z M26.203,281.425c0-0.223,0.055-0.336,0.168-0.336
		c1.903,0.226,3.302,0.953,4.199,2.184c0.446,0.449,0.672,1.176,0.672,2.184c0,0.559-0.336,0.84-1.008,0.84
		c-0.449,0-0.729-0.058-0.84-0.168l-0.168-0.168c-0.672-0.562-1.289-1.399-1.848-2.52C27.043,282.433,26.649,281.761,26.203,281.425
		z"/>
	<path d="M48.476,263.117c0-0.336,0.391-0.446,1.176-0.336h0.168c1.454,0,2.63,0.504,3.527,1.512h0.168
		c0.336-0.672,0.559-1.176,0.672-1.512c0.223-0.336,0.391-0.782,0.504-1.344l0.168-0.168v0.336v0.168c0,0.113,0,0.281,0,0.504
		c-0.226,1.457-0.336,3.081-0.336,4.871c0.446,1.008,0.055,2.296-1.176,3.863v0.168c-0.672,0-1.176-0.168-1.512-0.504
		c-0.113-0.223-0.336-0.391-0.672-0.504c-0.113-0.11-0.226-0.223-0.336-0.336c-0.336-0.559-0.785-1.848-1.344-3.863
		c-0.226-0.895-0.394-1.512-0.504-1.848c0-0.11-0.058-0.223-0.168-0.336C48.586,263.453,48.476,263.229,48.476,263.117z
		 M54.522,276.386c2.016-5.262,2.855-10.973,2.52-17.133c-0.113-0.223-0.168-0.559-0.168-1.008c0-0.672-0.281-1.176-0.84-1.512
		c0.11-0.336,0.504-0.504,1.176-0.504c1.344-0.11,2.126,0.562,2.352,2.016c0.11,1.68,0.168,3.417,0.168,5.207
		c0.446,0.113,1.118,0.394,2.016,0.84c0.11,0.113,0.223,0.168,0.336,0.168c0.11,0,0.168,0.113,0.168,0.336
		c0.336,0.336,0.672,0.504,1.008,0.504c0.11,0,0.168-0.055,0.168-0.168l0.168-0.168c0.336-0.672,0.727-1.567,1.176-2.688
		c0.11-0.559,0.223-0.95,0.336-1.176v-0.336c0,0.113,0.055,0.281,0.168,0.504c0,0.113,0,0.226,0,0.336
		c-0.113,0.226-0.168,0.394-0.168,0.504l0.168,0.168c0,0.113,0,0.226,0,0.336c0,0.785-0.113,1.96-0.336,3.527
		c-0.113,0.562-0.168,1.008-0.168,1.344c-0.449,0.226-1.008,0.336-1.68,0.336c-0.449,0-1.008-0.504-1.68-1.512
		s-1.233-1.567-1.68-1.68c-0.113,1.344-0.336,3.304-0.672,5.879c-0.113,1.121-0.226,1.96-0.336,2.52
		c-0.785,3.921-2.016,6.719-3.695,8.398c-0.785,0.449-1.569,0.672-2.352,0.672c-0.226,0-0.504-0.504-0.84-1.512v-0.168
		C52.953,279.41,53.851,278.066,54.522,276.386z M65.272,279.41c0-1.008,0.11-2.352,0.336-4.031c0.223-1.79,0.336-3.134,0.336-4.031
		c0-2.239,0.11-5.485,0.336-9.742c0-0.223,0-0.614,0-1.176c0.11-2.239,0-3.863-0.336-4.871c0.11-0.336,0.278-0.504,0.504-0.504
		c1.118,0.113,1.68,1.008,1.68,2.687c0,1.121-0.058,3.023-0.168,5.711c0,1.905,0,3.136,0,3.695c0,4.031-0.113,7.616-0.336,10.75
		c0.11,2.016-0.281,2.913-1.176,2.688C65.776,280.475,65.383,280.081,65.272,279.41z M68.464,263.453
		c0-0.223,0.168-0.336,0.504-0.336h0.168c0.336,0,0.84,0.168,1.512,0.504c0.559,0.336,0.95,0.504,1.176,0.504
		c0.11,0,0.223-0.055,0.336-0.168l0.336-0.168c0.672-1.344,1.063-2.52,1.176-3.527c0.223,0.113,0.278,0.449,0.168,1.008v0.168
		c0,0.449-0.058,0.897-0.168,1.344c-0.113,0.785-0.113,1.625,0,2.52c0.223,0.562,0,0.953-0.672,1.176
		c-0.562,0.113-1.68-0.672-3.359-2.352c-0.113-0.11-0.281-0.168-0.504-0.168C68.687,263.846,68.464,263.678,68.464,263.453z
		 M75.015,287.304c0-0.562,0.055-1.289,0.168-2.184c0-0.672,0-1.176,0-1.512c0.11-2.016,0.168-4.31,0.168-6.887
		c0-2.239,0-5.43,0-9.574c0-5.262,0.055-9.685,0.168-13.27c0-0.559-0.113-1.008-0.336-1.344c-0.113-0.11-0.168-0.223-0.168-0.336
		c0-0.336,0.168-0.504,0.504-0.504c1.118,0.226,1.79,0.84,2.016,1.848c-0.113,0.897-0.168,1.96-0.168,3.191
		c-0.113,3.472-0.168,8.23-0.168,14.277c0,6.719,0,11.758,0,15.117c0.11,2.016-0.394,3.023-1.512,3.023
		c-0.226,0-0.336-0.058-0.336-0.168l-0.336-0.336V287.304z"/>
	<path d="M112.237,289.992c-0.113,0-0.226,0-0.336,0c-0.226,0-0.336-0.168-0.336-0.504c0.223-3.136,0.446-7.782,0.672-13.941
		c0-0.895,0-1.567,0-2.016c0-0.11-0.168-0.446-0.504-1.008l0.336,0.168l0.168,0.168c0.11-0.895,0.168-3.47,0.168-7.727
		c-1.457,0.336-3.136,0.617-5.039,0.84c0.336,2.688,0.84,5.265,1.512,7.727c0.223,0.113,0.336,0.336,0.336,0.672
		c0.336,0.897,0.11,1.401-0.672,1.512c-0.785-0.223-1.344-0.672-1.68-1.344c-0.897-2.688-1.457-5.375-1.68-8.062
		c0-1.344,0.504-2.462,1.512-3.359l0.168,0.168c0.223,0.113,0.336,0.226,0.336,0.336v0.168c-0.113,0.336-0.113,0.897,0,1.68
		c1.344-0.782,3.134-1.399,5.375-1.848v-4.535c-2.577,0.226-5.207,0.729-7.895,1.512c-2.128,0.562-3.808,0.84-5.039,0.84
		c-0.672,0-1.289-0.278-1.848-0.84v-0.168c0-0.446,0.614-0.727,1.848-0.84c1.567-0.11,4.031-0.504,7.391-1.176
		c3.023-0.782,7.446-1.454,13.27-2.016c0.336,0,0.727-0.055,1.176-0.168c0.559,0,0.95,0,1.176,0c0.895,0,1.567,0.281,2.016,0.84
		c-0.113,0.897-0.785,1.401-2.016,1.512c0-0.11-0.058-0.168-0.168-0.168c-3.136,0-5.992,0.168-8.566,0.504
		c0.336,0.336,0.504,0.84,0.504,1.512l-0.168,2.855c1.231-0.223,2.462-0.336,3.695-0.336c1.344,0,2.52,0.168,3.527,0.504
		c1.118,0.672,1.68,1.344,1.68,2.016c0,0.226-0.113,0.672-0.336,1.344c-0.226,0.336-0.336,0.617-0.336,0.84
		c-0.897,3.808-1.737,6.328-2.52,7.559c-0.785,1.121-1.848,1.737-3.191,1.848c-0.562,0-1.512-0.559-2.855-1.68
		c0,2.688,0,5.711,0,9.07c-0.113,3.583-0.562,5.598-1.344,6.047C112.573,290.16,112.46,289.992,112.237,289.992z M111.061,252.703
		c-0.113,0-0.281,0.058-0.504,0.168l-0.168,0.168v-0.168c0.11-0.11,0.223-0.223,0.336-0.336c0.559-0.446,0.84-0.782,0.84-1.008
		c-0.113-0.336-0.84-1.176-2.184-2.52c-0.336-0.446,0-0.672,1.008-0.672c1.231,0.226,2.407,0.504,3.527,0.84
		c1.344,1.008,1.958,2.464,1.848,4.367c-0.449,1.008-1.289,1.176-2.52,0.504c0-0.11-0.058-0.223-0.168-0.336l-0.336-0.336
		c-0.113,0-0.168-0.11-0.168-0.336C112.46,252.815,111.956,252.703,111.061,252.703z M116.1,264.292
		c-0.226,0-0.504,0.058-0.84,0.168c-0.449,0.113-0.785,0.226-1.008,0.336c-0.226,4.031-0.336,7-0.336,8.902
		c0.672,0.562,1.399,0.785,2.184,0.672c1.344,0.226,2.462-1.848,3.359-6.215c0.446-1.567,0.672-2.63,0.672-3.191
		C119.683,264.069,118.339,263.846,116.1,264.292z"/>
	<path d="M159.705,288.816c0-0.113,0.168-0.168,0.504-0.168l0.168-0.336c0-0.113,0-0.226,0-0.336c0-1.121,0-2.52,0-4.199
		c0.11-2.239,0.168-4.254,0.168-6.047c-3.808,3.359-7.448,5.656-10.918,6.887c-0.562,0.336-1.121,0.504-1.68,0.504
		c-0.113,0.11-0.168,0.11-0.168,0h-0.168c-0.226,0-0.336-0.058-0.336-0.168c0.336-0.336,1.231-0.895,2.688-1.68
		c4.367-2.462,7.95-4.981,10.75-7.559c0-1.008,0-2.016,0-3.023c-1.457,0.336-3.191,0.672-5.207,1.008c-0.449,0-0.953,0-1.512,0
		c-0.113,1.233-0.953,2.128-2.52,2.688l-0.336,0.168l-0.336-0.336c-0.226-0.223-0.394-0.391-0.504-0.504
		c-0.113,0-0.168-0.11-0.168-0.336c-0.113-0.559,0.055-0.895,0.504-1.008c1.008-1.567,1.68-3.191,2.016-4.871
		c0.336-0.895,0.727-1.79,1.176-2.688c0.223,0,0.336,0.058,0.336,0.168h0.168l-0.168,0.168c0.223,0.336,0.504,0.953,0.84,1.848
		c1.008-0.895,2.126-1.399,3.359-1.512c0.895-0.223,1.735-0.391,2.52-0.504c0-1.231,0.055-2.462,0.168-3.695
		c-1.792,0.785-3.359,1.176-4.703,1.176c-0.226,0-0.504,0-0.84,0c-1.344-0.223-2.073-0.504-2.184-0.84
		c0.336-0.782,2.688-1.454,7.055-2.016l0.168-0.336c0.11-0.223,0.223-0.336,0.336-0.336c0.336,0,0.614,0.058,0.84,0.168
		c0.11,0,0.223,0,0.336,0c0.11,0.113,0.223,0.168,0.336,0.168c0.223,0,0.672-0.055,1.344-0.168
		c-0.449,0.113-0.336,0.058,0.336-0.168l-0.168-0.504c0.11,0,0.223,0.058,0.336,0.168l0.336,0.168
		c0.446-0.223,0.84-1.567,1.176-4.031c0-0.446-0.113-0.672-0.336-0.672c-0.226,0-0.449,0.113-0.672,0.336
		c-0.226,0.226-0.394,0.336-0.504,0.336c-0.113,0-0.336,0.058-0.672,0.168c-0.449,0.113-0.729,0.168-0.84,0.168
		c-0.113,0-0.281-0.055-0.504-0.168c-0.226-0.11-0.449-0.168-0.672-0.168v-0.336c0-0.672,0.391-1.231,1.176-1.68
		c1.344-1.344,2.07-2.911,2.184-4.703c0-0.223-0.058-0.223-0.168,0c-0.113,0-0.226,0-0.336,0c-0.336,0.113-0.617,0.168-0.84,0.168
		c-0.113,0-0.113,0,0,0c0-0.223,0.168-0.391,0.504-0.504l0.168-0.168l0.168-0.336c0.11-0.223,0.223-0.391,0.336-0.504
		c0.336-0.336,0.895-0.504,1.68-0.504c0.895,0.226,1.344,0.729,1.344,1.512c-0.113,0.672-0.504,1.512-1.176,2.52
		c-0.562,0.897-0.953,1.625-1.176,2.184c1.79-0.559,3.527-0.95,5.207-1.176c0.895-0.223,1.68-0.055,2.352,0.504
		c-0.113,0.897-1.233,1.457-3.359,1.68c-0.113,0-0.281,0-0.504,0h-0.168c-0.226,0-0.562,0-1.008,0
		c-0.449,0.113-0.785,0.168-1.008,0.168c0,0.226,0.055,0.504,0.168,0.84c0,0.226,0,0.394,0,0.504c0,0.897-0.168,2.184-0.504,3.863
		c1.008-0.223,1.79,0.058,2.352,0.84c0,0.113,0.055,0.168,0.168,0.168v0.336c0,1.008-0.504,1.848-1.512,2.52
		c-0.785,0.449-1.68,1.289-2.688,2.52c0,0.113,0,0.281,0,0.504c0.11,0.226,0,0.394-0.336,0.504H163.4
		c-0.226,0-0.672,0.058-1.344,0.168c0,1.008,0,2.016,0,3.023c3.47-0.559,6.325-0.84,8.566-0.84c0.782,0,1.734,0.226,2.855,0.672
		c0.559,0.336,0.895,1.008,1.008,2.016c0,0.449-0.281,1.065-0.84,1.848c-0.113,0.113-0.226,0.226-0.336,0.336
		c-0.897,1.344-2.016,2.745-3.359,4.199c-1.68,1.68-3.359,2.296-5.039,1.848c-0.672-0.223-1.289-0.614-1.848-1.176
		c-0.113-0.11,0.055-0.11,0.504,0c0-0.11,0-0.11,0,0c0-0.223-0.058-0.278-0.168-0.168c-0.226,0-0.336-0.055-0.336-0.168
		c0-0.223,0-0.391,0-0.504l-0.336,0.336c-0.226,0-0.504-0.223-0.84-0.672c0,0.449,0,1.121,0,2.016
		c-0.113,2.016-0.168,3.695-0.168,5.039v1.848v0.672c-0.113,0.672-0.168,1.063-0.168,1.176c0,0.11-0.058,0.223-0.168,0.336
		c-0.226,0-0.336,0.055-0.336,0.168h-0.168C160.208,290.215,159.815,289.711,159.705,288.816z M156.849,259.421
		c0-0.336,0.055-0.782,0.168-1.344c0-0.559,0-1.008,0-1.344c-1.344,0.226-2.409,0.672-3.191,1.344
		c-1.344,1.121-2.855,1.512-4.535,1.176c-0.672-0.11-0.953-0.446-0.84-1.008c0-0.336,0.336-0.782,1.008-1.344
		c0.223-0.336,0.391-0.559,0.504-0.672c0.223-0.336,0.672-0.895,1.344-1.68c0.336-0.336,1.118-1.344,2.352-3.023
		c0-0.11,0.055-0.336,0.168-0.672c0.11-0.782,0.223-1.176,0.336-1.176h0.504c2.016,0.113,2.966,1.457,2.855,4.031l0.168,0.168
		c0.11-0.11,0.223-0.168,0.336-0.168c0.782-0.559,1.512-0.727,2.184-0.504h0.168c0.895,0.113,1.399,0.394,1.512,0.84
		c0,0.226-0.226,0.672-0.672,1.344c-0.562,0.672-0.897,1.233-1.008,1.68c-0.336,1.121-0.617,1.792-0.84,2.016l-0.168,0.168
		c0,0.113-0.168,0.281-0.504,0.504c-0.226,0.336-0.785,0.504-1.68,0.504C156.904,259.925,156.849,259.647,156.849,259.421z
		 M154.162,273.027c2.462-0.782,4.646-1.286,6.551-1.512c0.11-1.008,0.168-1.958,0.168-2.855c-1.008,0.113-1.792,0.336-2.352,0.672
		c-1.008,0.562-2.241,0.672-3.695,0.336C154.608,270.116,154.385,271.237,154.162,273.027z M165.416,272.019
		c-0.336,1.121-1.512,2.688-3.527,4.703v1.512c2.574,1.457,4.535,1.569,5.879,0.336c1.68-1.903,3.023-3.638,4.031-5.207
		c0.11-0.11,0.168-0.391,0.168-0.84c0-0.559-0.729-0.895-2.184-1.008c-0.336,0-0.84,0.058-1.512,0.168
		C166.928,271.796,165.975,271.909,165.416,272.019z M163.568,272.187c-0.336,0-0.84,0.113-1.512,0.336
		c-0.113,0.672-0.168,1.289-0.168,1.848C162.783,273.475,163.343,272.748,163.568,272.187z M162.393,262.781
		c-0.113,0.672-0.168,2.016-0.168,4.031c0.11,0,0.336-0.055,0.672-0.168c0.223,0,0.391,0,0.504,0
		c0.336-0.672,0.84-1.454,1.512-2.352c0.672-0.895,1.008-1.512,1.008-1.848s-0.168-0.504-0.504-0.504
		c-0.226,0-0.729,0.168-1.512,0.504C163.119,262.67,162.615,262.781,162.393,262.781z M163.568,279.746v0.168l0.336-0.168H163.568z
		 M165.08,279.746l0.168,0.168v-0.168H165.08z M165.752,256.902v0.168C165.975,256.959,165.975,256.902,165.752,256.902z
		 M165.92,279.578c-0.113,0-0.113,0.058,0,0.168C166.143,279.635,166.143,279.578,165.92,279.578z"/>
	<path d="M193.063,276.89l0.168-0.168c0.11,0,0.559-0.055,1.344-0.168c0.782-0.11,1.23-0.168,1.344-0.168
		c3.695-0.672,7.055-1.176,10.078-1.512c0.446-0.11,1.176-0.223,2.184-0.336c4.142-0.559,7.277-1.008,9.406-1.344h1.176
		c2.798,0.226,4.254,1.008,4.367,2.352c0,0.562-0.336,1.065-1.008,1.512h-1.008c-0.113,0-0.281,0-0.504,0
		c-1.457-0.223-3.081-0.336-4.871-0.336c-6.496,0.336-11.479,1.008-14.949,2.016c-0.113,0-0.336,0.113-0.672,0.336
		c-1.121,0.562-1.905,0.84-2.352,0.84c-0.672,0-1.344-0.168-2.016-0.504c-0.226-0.11-0.562-0.391-1.008-0.84
		c-0.226-0.336-0.394-0.504-0.504-0.504c-0.113,0-0.226-0.055-0.336-0.168C193.342,277.562,193.063,277.226,193.063,276.89z
		 M204.989,265.3v-0.336c0-0.223,0.168-0.446,0.504-0.672c0.11-0.11,0.168-0.223,0.168-0.336c0-0.336-0.113-0.504-0.336-0.504
		c-1.793-0.223-3.249-1.231-4.367-3.023c0-0.223-0.058-0.336-0.168-0.336c-0.113-0.672,0.727-1.063,2.52-1.176
		c0.782,0,1.566,0,2.352,0c1.68-0.223,3.246-0.672,4.703-1.344c1.902,0.113,2.966,0.84,3.191,2.184c0,0.562-0.058,1.008-0.168,1.344
		c-0.449,0.562-1.344,1.176-2.688,1.848c-1.233,0.785-2.577,1.401-4.031,1.848c-0.113,0-0.336,0.113-0.672,0.336
		c-0.336,0.226-0.617,0.336-0.84,0.336L204.989,265.3z"/>
	<path d="M249.771,271.347c-0.113,0.897-0.729,1.457-1.848,1.68c-0.897,0.113-1.512-0.336-1.848-1.344
		c-1.008-1.79-1.961-3.974-2.855-6.551c-0.562-1.454-0.449-2.52,0.336-3.191c0.672-0.336,1.23-0.278,1.68,0.168
		c0.223,0.226,0.446,0.394,0.672,0.504c2.352-0.672,4.926-1.286,7.727-1.848v-6.047c0-1.454-0.058-2.407-0.168-2.855
		c0-0.223-0.058-0.446-0.168-0.672c0-0.446,0.336-0.672,1.008-0.672c1.23,0.336,1.79,1.737,1.68,4.199c0,0.562,0,1.457,0,2.687
		c-0.113,1.344-0.168,2.352-0.168,3.023c2.352-0.446,4.478-0.672,6.383-0.672c1.454-0.11,2.63,0.394,3.527,1.512
		c1.008,1.121,1.23,2.073,0.672,2.855c-1.008,1.68-2.409,3.304-4.199,4.871c0.223,0.113,0.336,0.281,0.336,0.504
		c-0.113,1.008-0.785,1.457-2.016,1.344c-1.344-0.223-2.969-0.278-4.871-0.168c0,0.449-0.058,1.121-0.168,2.016
		c0,0.672,0,1.121,0,1.344c0,1.121-0.058,2.688-0.168,4.703c0,4.816-0.113,7.782-0.336,8.902c-0.113,1.567-0.449,2.407-1.008,2.52
		c-0.113,0.11-0.281,0.168-0.504,0.168c-0.226,0-0.394-0.058-0.504-0.168c0-0.226-0.058-0.336-0.168-0.336v-0.672
		c-0.113-0.449-0.168-0.729-0.168-0.84c0.446-6.383,0.727-12.204,0.84-17.469C252.122,270.956,250.889,271.124,249.771,271.347z
		 M253.466,269.163c0-2.016,0.055-4.142,0.168-6.383c-2.801,0.562-4.929,1.176-6.383,1.848c0.223,0.785,0.614,1.96,1.176,3.527
		c0.223,0.672,0.391,1.176,0.504,1.512C249.713,269.557,251.225,269.389,253.466,269.163z M258.169,268.828
		c1.566-2.016,3.023-4.142,4.367-6.383c0.223-0.336,0.278-0.559,0.168-0.672c-0.113-0.223-0.394-0.278-0.84-0.168
		c-1.008,0.113-2.352,0.281-4.031,0.504c-0.897,0.113-1.569,0.168-2.016,0.168c0,0.785-0.058,2.016-0.168,3.695
		c0,1.344,0,2.352,0,3.023c0.336,0,0.782-0.055,1.344-0.168C257.552,268.828,257.943,268.828,258.169,268.828z"/>
	<path d="M286.992,271.011c-0.113-0.559,0.672-1.848,2.352-3.863c0.11-0.11,0.278-0.336,0.504-0.672
		c0.559-1.008,0.95-1.512,1.176-1.512h0.168c0.336,0.672,0.504,1.176,0.504,1.512c0.336-0.11,0.782-0.223,1.344-0.336
		c0.672-0.11,1.118-0.168,1.344-0.168c-0.449-0.672-0.672-1.958-0.672-3.863c0-1.68-0.281-3.023-0.84-4.031
		c0-0.11-0.113-0.278-0.336-0.504c-0.336-0.672-0.504-1.176-0.504-1.512v-0.336c0.223,0,0.391,0,0.504,0
		c1.566,0.226,2.63,0.672,3.191,1.344c0.672,1.344,0.95,3.472,0.84,6.383c0,1.008,0,1.737,0,2.184c0.11,0,0.278-0.055,0.504-0.168
		c0.223,0,0.391,0,0.504,0c-0.113-0.559-0.168-0.95-0.168-1.176c0.223-0.446,0.223-2.911,0-7.391
		c-0.113-1.68-0.168-3.023-0.168-4.031c0-0.11-0.113-0.223-0.336-0.336h-0.168c-0.113,0-0.168,0.058-0.168,0.168
		c-0.336,0.113-0.562,0.058-0.672-0.168c0-0.11,0.11-0.336,0.336-0.672c0.782-0.895,1.622-1.008,2.52-0.336
		c0.446,0.562,0.614,1.289,0.504,2.184c0.672,0,1.344,0.168,2.016,0.504c0.672-1.008,1.118-1.848,1.344-2.52
		c0-0.336-0.226-0.504-0.672-0.504c0-0.11,0.223-0.223,0.672-0.336h0.168c1.008-0.11,1.512,0.058,1.512,0.504
		c0,0.562-0.113,1.121-0.336,1.68c-0.449,0.672-0.84,1.344-1.176,2.016c0.11,0.113,0.278,0.226,0.504,0.336
		c0.336,0.226,0.614,0.449,0.84,0.672c0.11,0.113,0.223,0.226,0.336,0.336c0.446,0.226,0.672,0.449,0.672,0.672
		c1.454,0,2.462,0.058,3.023,0.168c0.336-0.895,0.504-1.79,0.504-2.687c0-0.11-0.449-0.223-1.344-0.336
		c-1.233,0-1.848-0.11-1.848-0.336v-0.168c1.23-0.446,2.406-0.672,3.527-0.672c1.118,0.113,1.734,0.729,1.848,1.848
		c0,0.113-0.113,0.449-0.336,1.008c-0.113,0.449-0.226,0.785-0.336,1.008c-0.226,0.785-0.562,1.96-1.008,3.527
		c-0.449,1.569-0.84,2.8-1.176,3.695c4.031,0,6.551,0.729,7.559,2.184c0,0.113,0.055,0.226,0.168,0.336
		c0.336,0.449,0.504,0.897,0.504,1.344c0,0.449-0.168,0.84-0.504,1.176c-0.113,0.226-0.617,0.336-1.512,0.336l-0.336-0.168
		c-0.226,0-0.394,0-0.504,0c-0.336,0-0.897,0.058-1.68,0.168c-0.672,0.113-1.233,0.168-1.68,0.168c-0.113,0-0.336-0.055-0.672-0.168
		c-0.226-0.11-0.449-0.168-0.672-0.168c-0.226,0.113-0.281,0.113-0.168,0c0.11-0.223,0.84-0.672,2.184-1.344
		c1.344-0.782,1.958-1.231,1.848-1.344c-0.672-1.118-2.352-1.512-5.039-1.176l-0.168,0.168c-0.562,0.785-1.065,1.289-1.512,1.512
		c-0.336,0-0.562,0-0.672,0c-0.113,0-0.168-0.11-0.168-0.336c0-0.11,0-0.223,0-0.336c0.11-0.559,0-0.84-0.336-0.84
		c-2.016,0.113-3.809,0.336-5.375,0.672c-0.113,0.336-0.281,0.562-0.504,0.672c-0.226,0-0.449-0.168-0.672-0.504
		c-0.449,0.113-1.176,0.226-2.184,0.336c-1.905,0.336-3.359,0.562-4.367,0.672c-1.344,3.136-2.577,4.816-3.695,5.039
		C287.271,272.413,286.992,271.909,286.992,271.011z M309.332,275.21c-1.457-0.223-2.241-0.336-2.352-0.336
		c-0.897,0-2.016,0-3.359,0c0.895,4.929,0.727,9.183-0.504,12.766c-0.449,0.782-1.344,1.454-2.688,2.016
		c-1.008-0.226-2.129-0.617-3.359-1.176c-0.562-0.226-0.897-0.394-1.008-0.504c-0.226-0.113-0.504-0.336-0.84-0.672
		c-0.226-0.336-0.394-0.504-0.504-0.504c-0.113-0.113-0.168-0.226-0.168-0.336c-0.113-0.113-0.168-0.226-0.168-0.336
		c-0.113,0-0.336-0.168-0.672-0.504v-0.168h0.168c3.023,0.895,5.262,1.286,6.719,1.176c0.782,0,1.398-0.672,1.848-2.016
		c0.895-2.688,0.895-5.879,0-9.574c-3.695,0.449-6.215,1.008-7.559,1.68c-0.672,0.336-1.737,0.504-3.191,0.504
		c-0.672-0.11-1.176-0.336-1.512-0.672c0-0.11,0.11-0.168,0.336-0.168c0.223-0.11,0.391-0.168,0.504-0.168
		c1.118-0.559,3.134-1.063,6.047-1.512c0.223,0,0.559-0.055,1.008-0.168c1.23-0.223,2.574-0.446,4.031-0.672
		c-0.113-0.223-0.226-0.446-0.336-0.672c-0.113-0.11-0.168-0.223-0.168-0.336h-0.168c-0.226,0-0.336,0.058-0.336,0.168h-0.168
		c0-0.11-0.058-0.168-0.168-0.168c0.336-0.11,0.446-0.278,0.336-0.504c-0.226-0.672-0.729-1.176-1.512-1.512
		c-0.113-0.11-0.226-0.168-0.336-0.168c-0.113,0-0.168-0.168-0.168-0.504c-0.226,0.113-0.562,0.281-1.008,0.504
		c-0.672,0.449-1.121,0.672-1.344,0.672c-0.785,0-1.121-0.504-1.008-1.512c0.336-1.118,0.895-1.903,1.68-2.352
		c0,0.113,0.11,0.226,0.336,0.336c0.11,0.113,0.168,0.226,0.168,0.336c0,0.113-0.058,0.226-0.168,0.336v0.168
		c0,0.336,0.168,0.504,0.504,0.504c0.559,0,1.286-0.168,2.184-0.504c0.559-0.223,0.95-0.391,1.176-0.504
		c0.223,0,0.559-0.11,1.008-0.336c1.566-0.336,2.798-0.504,3.695-0.504h0.84c0.446,0.113,0.672,0.449,0.672,1.008
		c0,0.113,0,0.226,0,0.336c0.223,0.113,0.223,0.336,0,0.672c-1.569,1.457-3.137,2.52-4.703,3.191c0,0.113,0.055,0.281,0.168,0.504
		c0,0.226,0,0.394,0,0.504c1.68-0.11,3.246-0.168,4.703-0.168c1.454,0.336,2.294,0.729,2.52,1.176
		C310.508,274.874,310.114,275.1,309.332,275.21z M299.254,254.718c0,0.785,0,1.624,0,2.52c0.11-0.11,0.223-0.278,0.336-0.504
		c0.11-0.223,0.391-0.614,0.84-1.176c-0.113-0.11-0.281-0.278-0.504-0.504C299.59,254.944,299.364,254.831,299.254,254.718z
		 M299.422,262.949c0.446-0.223,1.008-0.727,1.68-1.512c-0.672-1.118-1.233-1.68-1.68-1.68
		C299.422,260.765,299.422,261.83,299.422,262.949z M299.59,264.796c0,0.113,0,0.226,0,0.336c1.23-0.223,2.406-0.391,3.527-0.504
		c-0.113-0.223-0.336-0.672-0.672-1.344c-0.113-0.336-0.226-0.559-0.336-0.672C301.324,263.621,300.484,264.35,299.59,264.796z
		 M303.117,257.406c0-0.223-0.449-0.559-1.344-1.008c-0.672,0.785-1.344,1.625-2.016,2.52c0.895,0.226,1.68,0.617,2.352,1.176
		C302.781,258.975,303.117,258.078,303.117,257.406z M300.766,269.163c-0.113,0-0.168,0.058-0.168,0.168
		c-0.113,0-0.226,0.058-0.336,0.168c-0.226,0.113-0.394,0.226-0.504,0.336c1.566,0.785,2.352,1.289,2.352,1.512
		c1.68-1.118,2.798-2.184,3.359-3.191C304.235,268.045,302.668,268.381,300.766,269.163z M300.766,269.331v-0.168
		c0,0.113-0.058,0.168-0.168,0.168H300.766z M305.133,257.574c-0.113,0.785-0.729,1.96-1.848,3.527
		c0.895,1.008,1.344,2.128,1.344,3.359c0.446,0,0.84,0,1.176,0c0.559-0.895,0.895-1.68,1.008-2.352
		c-0.113-0.11-0.336-0.168-0.672-0.168c-1.233-0.336-1.848-0.84-1.848-1.512c0-0.336,0.168-0.446,0.504-0.336
		c0,0.336,0.559,0.504,1.68,0.504h0.336h0.336c0.336-0.782,0.559-1.454,0.672-2.016h-1.512l-0.168,0.168l0.168-0.336v-0.168
		C306.083,258.022,305.691,257.799,305.133,257.574z M303.621,271.347l-0.168,0.168h0.168V271.347z M303.789,271.011h-0.168
		C303.731,271.124,303.789,271.124,303.789,271.011z M305.805,259.085l0.168-0.168C305.973,259.03,305.915,259.085,305.805,259.085z
		"/>
	<path d="M16.987,313.704c-0.675,0.31-1.413,0.58-2.212,0.81c-0.8,0.229-1.573,0.344-2.32,0.344c-0.963,0-1.846-0.133-2.648-0.398
		s-1.486-0.664-2.05-1.195c-0.57-0.537-1.01-1.208-1.32-2.013c-0.31-0.805-0.465-1.747-0.465-2.826c0-1.976,0.577-3.535,1.731-4.678
		c1.153-1.143,2.738-1.714,4.752-1.714c0.703,0,1.421,0.084,2.154,0.253c0.733,0.169,1.523,0.456,2.37,0.859v1.951h-0.149
		c-0.171-0.133-0.42-0.307-0.747-0.523s-0.647-0.396-0.963-0.54c-0.382-0.171-0.815-0.314-1.299-0.427
		c-0.484-0.114-1.033-0.17-1.647-0.17c-1.383,0-2.478,0.444-3.283,1.333c-0.805,0.888-1.208,2.09-1.208,3.606
		c0,1.599,0.42,2.843,1.262,3.731c0.841,0.888,1.987,1.332,3.437,1.332c0.531,0,1.061-0.053,1.589-0.158
		c0.529-0.105,0.992-0.241,1.391-0.407v-3.03h-3.312v-1.444h4.939V313.704z"/>
	<path d="M29.164,309.653c0,0.896-0.098,1.678-0.294,2.345c-0.197,0.667-0.519,1.222-0.967,1.665
		c-0.426,0.42-0.924,0.728-1.494,0.921s-1.234,0.291-1.992,0.291c-0.775,0-1.45-0.103-2.025-0.307s-1.06-0.506-1.453-0.905
		c-0.448-0.454-0.771-1.001-0.967-1.644c-0.197-0.642-0.295-1.431-0.295-2.366v-7.396h1.644v7.479c0,0.669,0.046,1.198,0.137,1.585
		c0.092,0.387,0.245,0.739,0.461,1.054c0.244,0.36,0.574,0.631,0.992,0.813c0.417,0.183,0.92,0.274,1.506,0.274
		c0.592,0,1.096-0.09,1.511-0.27c0.415-0.18,0.747-0.452,0.996-0.817c0.216-0.315,0.37-0.677,0.46-1.083
		c0.092-0.407,0.137-0.912,0.137-1.515v-7.521h1.644V309.653z"/>
	<path d="M41.964,314.617h-1.751L39,311.172h-5.346l-1.212,3.445h-1.668l4.499-12.36h2.191L41.964,314.617z M38.494,309.761
		l-2.167-6.068l-2.175,6.068H38.494z"/>
	<path d="M53.27,314.617h-2.034l-5.86-11.057v11.057H43.84v-12.36h2.548l5.346,10.094v-10.094h1.536V314.617z"/>
	<path d="M66.866,313.704c-0.675,0.31-1.413,0.58-2.212,0.81c-0.8,0.229-1.573,0.344-2.32,0.344c-0.963,0-1.846-0.133-2.648-0.398
		s-1.486-0.664-2.05-1.195c-0.57-0.537-1.01-1.208-1.32-2.013c-0.31-0.805-0.465-1.747-0.465-2.826c0-1.976,0.577-3.535,1.731-4.678
		c1.153-1.143,2.738-1.714,4.752-1.714c0.703,0,1.421,0.084,2.154,0.253c0.733,0.169,1.523,0.456,2.37,0.859v1.951h-0.149
		c-0.171-0.133-0.42-0.307-0.747-0.523s-0.647-0.396-0.963-0.54c-0.382-0.171-0.815-0.314-1.299-0.427
		c-0.484-0.114-1.033-0.17-1.647-0.17c-1.383,0-2.478,0.444-3.283,1.333c-0.805,0.888-1.208,2.09-1.208,3.606
		c0,1.599,0.42,2.843,1.262,3.731c0.841,0.888,1.987,1.332,3.437,1.332c0.531,0,1.061-0.053,1.589-0.158
		c0.529-0.105,0.992-0.241,1.391-0.407v-3.03h-3.312v-1.444h4.939V313.704z"/>
	<path d="M78.77,314.617h-9.646v-1.527l7.579-9.372h-7.296v-1.461h9.181v1.486l-7.653,9.413h7.836V314.617z"/>
	<path d="M90.839,314.617h-1.644v-6.051h-6.167v6.051h-1.644v-12.36h1.644v4.848h6.167v-4.848h1.644V314.617z"/>
	<path d="M103.373,303.676c0.503,0.553,0.89,1.231,1.158,2.034c0.268,0.802,0.402,1.713,0.402,2.731s-0.137,1.93-0.411,2.735
		c-0.273,0.805-0.657,1.476-1.149,2.013c-0.509,0.559-1.111,0.979-1.806,1.262c-0.694,0.282-1.487,0.423-2.378,0.423
		c-0.869,0-1.659-0.144-2.37-0.432c-0.711-0.288-1.315-0.706-1.813-1.253s-0.881-1.22-1.149-2.017
		c-0.269-0.797-0.403-1.707-0.403-2.731c0-1.007,0.133-1.911,0.398-2.71c0.266-0.8,0.653-1.485,1.162-2.055
		c0.487-0.542,1.091-0.958,1.814-1.245c0.722-0.288,1.509-0.432,2.361-0.432c0.885,0,1.681,0.146,2.387,0.436
		C102.281,302.726,102.88,303.14,103.373,303.676z M103.224,308.441c0-1.605-0.36-2.843-1.079-3.715
		c-0.719-0.871-1.702-1.307-2.947-1.307c-1.256,0-2.243,0.436-2.959,1.307c-0.716,0.872-1.075,2.11-1.075,3.715
		c0,1.622,0.365,2.862,1.096,3.723c0.73,0.861,1.71,1.291,2.938,1.291s2.207-0.43,2.934-1.291
		C102.86,311.303,103.224,310.062,103.224,308.441z"/>
	<path d="M116.845,309.653c0,0.896-0.098,1.678-0.294,2.345c-0.197,0.667-0.519,1.222-0.967,1.665
		c-0.426,0.42-0.924,0.728-1.494,0.921s-1.234,0.291-1.992,0.291c-0.775,0-1.45-0.103-2.025-0.307s-1.06-0.506-1.453-0.905
		c-0.448-0.454-0.771-1.001-0.967-1.644c-0.197-0.642-0.295-1.431-0.295-2.366v-7.396h1.644v7.479c0,0.669,0.046,1.198,0.137,1.585
		c0.092,0.387,0.245,0.739,0.461,1.054c0.244,0.36,0.574,0.631,0.992,0.813c0.417,0.183,0.92,0.274,1.506,0.274
		c0.592,0,1.096-0.09,1.511-0.27c0.415-0.18,0.747-0.452,0.996-0.817c0.216-0.315,0.37-0.677,0.46-1.083
		c0.092-0.407,0.137-0.912,0.137-1.515v-7.521h1.644V309.653z"/>
	<path d="M141.366,314.617h-2.034l-5.86-11.057v11.057h-1.536v-12.36h2.548l5.346,10.094v-10.094h1.536V314.617z"/>
	<path d="M153.867,303.676c0.503,0.553,0.89,1.231,1.158,2.034c0.268,0.802,0.402,1.713,0.402,2.731s-0.137,1.93-0.411,2.735
		c-0.273,0.805-0.657,1.476-1.149,2.013c-0.509,0.559-1.111,0.979-1.806,1.262c-0.694,0.282-1.487,0.423-2.378,0.423
		c-0.869,0-1.659-0.144-2.37-0.432c-0.711-0.288-1.315-0.706-1.813-1.253s-0.881-1.22-1.149-2.017
		c-0.269-0.797-0.403-1.707-0.403-2.731c0-1.007,0.133-1.911,0.398-2.71c0.266-0.8,0.653-1.485,1.162-2.055
		c0.487-0.542,1.091-0.958,1.814-1.245c0.722-0.288,1.509-0.432,2.361-0.432c0.885,0,1.681,0.146,2.387,0.436
		C152.775,302.726,153.374,303.14,153.867,303.676z M153.717,308.441c0-1.605-0.36-2.843-1.079-3.715
		c-0.719-0.871-1.702-1.307-2.947-1.307c-1.256,0-2.243,0.436-2.959,1.307c-0.716,0.872-1.075,2.11-1.075,3.715
		c0,1.622,0.365,2.862,1.096,3.723c0.73,0.861,1.71,1.291,2.938,1.291s2.207-0.43,2.934-1.291
		C153.354,311.303,153.717,310.062,153.717,308.441z"/>
	<path d="M160.208,314.617h-1.984v-2.366h1.984V314.617z"/>
	<path d="M172.013,314.617h-8.367v-1.735c0.581-0.498,1.163-0.996,1.747-1.494s1.128-0.993,1.631-1.486
		c1.062-1.029,1.79-1.847,2.184-2.453c0.393-0.605,0.589-1.26,0.589-1.963c0-0.642-0.212-1.144-0.635-1.507
		c-0.424-0.362-1.014-0.543-1.772-0.543c-0.503,0-1.049,0.088-1.635,0.266c-0.587,0.177-1.159,0.448-1.719,0.813h-0.083v-1.743
		c0.394-0.194,0.917-0.371,1.573-0.531c0.655-0.161,1.291-0.241,1.905-0.241c1.267,0,2.261,0.306,2.979,0.917
		c0.72,0.612,1.079,1.44,1.079,2.486c0,0.47-0.06,0.909-0.179,1.315c-0.118,0.407-0.294,0.793-0.526,1.158
		c-0.216,0.343-0.47,0.681-0.76,1.013c-0.291,0.332-0.644,0.7-1.059,1.104c-0.592,0.581-1.203,1.144-1.834,1.689
		c-0.631,0.545-1.221,1.05-1.769,1.515h6.649V314.617z"/>
	<path d="M196.185,314.617h-1.645v-6.051h-6.167v6.051h-1.644v-12.36h1.644v4.848h6.167v-4.848h1.645V314.617z"/>
	<path d="M203.862,314.617h-4.881v-1.262h1.619v-9.836h-1.619v-1.262h4.881v1.262h-1.618v9.836h1.618V314.617z"/>
	<path d="M216.97,313.704c-0.675,0.31-1.412,0.58-2.212,0.81c-0.8,0.229-1.573,0.344-2.32,0.344c-0.963,0-1.846-0.133-2.648-0.398
		c-0.802-0.266-1.485-0.664-2.05-1.195c-0.57-0.537-1.01-1.208-1.319-2.013c-0.311-0.805-0.465-1.747-0.465-2.826
		c0-1.976,0.576-3.535,1.73-4.678c1.153-1.143,2.737-1.714,4.752-1.714c0.703,0,1.421,0.084,2.154,0.253
		c0.733,0.169,1.523,0.456,2.369,0.859v1.951h-0.148c-0.172-0.133-0.421-0.307-0.748-0.523c-0.326-0.216-0.646-0.396-0.963-0.54
		c-0.381-0.171-0.814-0.314-1.299-0.427c-0.484-0.114-1.033-0.17-1.647-0.17c-1.384,0-2.478,0.444-3.283,1.333
		c-0.805,0.888-1.208,2.09-1.208,3.606c0,1.599,0.421,2.843,1.262,3.731c0.842,0.888,1.987,1.332,3.438,1.332
		c0.531,0,1.061-0.053,1.589-0.158s0.992-0.241,1.391-0.407v-3.03h-3.312v-1.444h4.938V313.704z"/>
	<path d="M229.297,314.617h-1.645v-6.051h-6.167v6.051h-1.644v-12.36h1.644v4.848h6.167v-4.848h1.645V314.617z"/>
	<path d="M253.551,311.089c0,0.481-0.112,0.958-0.336,1.428c-0.225,0.47-0.538,0.869-0.942,1.195
		c-0.442,0.354-0.959,0.631-1.548,0.83c-0.59,0.199-1.3,0.299-2.13,0.299c-0.891,0-1.691-0.083-2.402-0.249
		s-1.435-0.412-2.171-0.739v-2.059h0.116c0.625,0.52,1.348,0.921,2.166,1.204c0.819,0.282,1.589,0.423,2.309,0.423
		c1.018,0,1.811-0.191,2.378-0.573s0.851-0.891,0.851-1.527c0-0.548-0.134-0.952-0.402-1.212s-0.677-0.462-1.225-0.606
		c-0.415-0.111-0.864-0.202-1.349-0.274s-0.998-0.163-1.54-0.274c-1.096-0.232-1.908-0.629-2.437-1.191
		c-0.528-0.562-0.792-1.293-0.792-2.195c0-1.035,0.437-1.883,1.311-2.544c0.875-0.662,1.984-0.992,3.329-0.992
		c0.869,0,1.666,0.083,2.391,0.249s1.367,0.371,1.926,0.614v1.942h-0.116c-0.471-0.398-1.089-0.729-1.855-0.992
		c-0.767-0.263-1.551-0.394-2.354-0.394c-0.879,0-1.586,0.183-2.12,0.548s-0.802,0.835-0.802,1.411c0,0.515,0.133,0.918,0.398,1.212
		s0.733,0.518,1.403,0.672c0.354,0.078,0.857,0.171,1.511,0.282s1.206,0.224,1.66,0.34c0.919,0.244,1.61,0.611,2.075,1.104
		S253.551,310.204,253.551,311.089z"/>
	<path d="M265.736,313.72c-0.305,0.133-0.58,0.257-0.826,0.374s-0.568,0.238-0.967,0.365c-0.338,0.105-0.704,0.195-1.1,0.27
		c-0.396,0.074-0.832,0.112-1.308,0.112c-0.896,0-1.711-0.126-2.444-0.377c-0.733-0.252-1.371-0.646-1.913-1.183
		c-0.531-0.526-0.947-1.194-1.246-2.004c-0.299-0.811-0.447-1.753-0.447-2.827c0-1.018,0.144-1.929,0.432-2.731
		c0.287-0.802,0.702-1.48,1.244-2.034c0.526-0.537,1.161-0.946,1.905-1.229s1.57-0.423,2.478-0.423c0.664,0,1.327,0.08,1.988,0.241
		s1.396,0.443,2.204,0.847v1.951h-0.124c-0.682-0.57-1.356-0.985-2.025-1.245c-0.67-0.26-1.387-0.39-2.15-0.39
		c-0.625,0-1.188,0.101-1.689,0.303c-0.501,0.202-0.947,0.516-1.34,0.942c-0.383,0.415-0.68,0.939-0.893,1.573
		c-0.213,0.634-0.32,1.366-0.32,2.196c0,0.869,0.118,1.616,0.354,2.241s0.538,1.134,0.908,1.527c0.388,0.41,0.84,0.712,1.357,0.909
		c0.518,0.197,1.064,0.295,1.64,0.295c0.791,0,1.533-0.136,2.225-0.407s1.339-0.678,1.942-1.22h0.116V313.72z"/>
	<path d="M277.517,314.617h-1.645v-6.051h-6.167v6.051h-1.644v-12.36h1.644v4.848h6.167v-4.848h1.645V314.617z"/>
	<path d="M290.05,303.676c0.504,0.553,0.89,1.231,1.158,2.034s0.402,1.713,0.402,2.731s-0.137,1.93-0.411,2.735
		c-0.273,0.805-0.657,1.476-1.149,2.013c-0.509,0.559-1.111,0.979-1.806,1.262s-1.487,0.423-2.378,0.423
		c-0.869,0-1.659-0.144-2.37-0.432s-1.315-0.706-1.813-1.253s-0.881-1.22-1.149-2.017s-0.402-1.707-0.402-2.731
		c0-1.007,0.133-1.911,0.398-2.71c0.266-0.8,0.652-1.485,1.162-2.055c0.486-0.542,1.091-0.958,1.813-1.245
		c0.722-0.288,1.509-0.432,2.361-0.432c0.886,0,1.681,0.146,2.387,0.436C288.958,302.726,289.558,303.14,290.05,303.676z
		 M289.9,308.441c0-1.605-0.359-2.843-1.079-3.715c-0.72-0.871-1.702-1.307-2.946-1.307c-1.257,0-2.243,0.436-2.96,1.307
		c-0.717,0.872-1.075,2.11-1.075,3.715c0,1.622,0.365,2.862,1.096,3.723c0.73,0.861,1.711,1.291,2.939,1.291s2.206-0.43,2.934-1.291
		C289.536,311.303,289.9,310.062,289.9,308.441z"/>
	<path d="M303.431,303.676c0.504,0.553,0.89,1.231,1.158,2.034s0.402,1.713,0.402,2.731s-0.137,1.93-0.411,2.735
		c-0.273,0.805-0.657,1.476-1.149,2.013c-0.509,0.559-1.111,0.979-1.806,1.262s-1.487,0.423-2.378,0.423
		c-0.869,0-1.659-0.144-2.37-0.432s-1.315-0.706-1.813-1.253s-0.881-1.22-1.149-2.017s-0.402-1.707-0.402-2.731
		c0-1.007,0.133-1.911,0.398-2.71c0.266-0.8,0.652-1.485,1.162-2.055c0.486-0.542,1.091-0.958,1.813-1.245
		c0.722-0.288,1.509-0.432,2.361-0.432c0.886,0,1.681,0.146,2.387,0.436C302.339,302.726,302.938,303.14,303.431,303.676z
		 M303.281,308.441c0-1.605-0.359-2.843-1.079-3.715c-0.72-0.871-1.702-1.307-2.946-1.307c-1.257,0-2.243,0.436-2.96,1.307
		c-0.717,0.872-1.075,2.11-1.075,3.715c0,1.622,0.365,2.862,1.096,3.723c0.73,0.861,1.711,1.291,2.939,1.291s2.206-0.43,2.934-1.291
		C302.917,311.303,303.281,310.062,303.281,308.441z"/>
	<path d="M315.417,314.617h-7.819v-12.36h1.644v10.899h6.176V314.617z"/>
</g>
</svg>
